M48
; DRILL file {KiCad 9.0.2} date 2025-09-14T14:53:03+0700
; FORMAT={-:-/ absolute / inch / decimal}
; #@! TF.CreationDate,2025-09-14T14:53:03+07:00
; #@! TF.GenerationSoftware,Kicad,Pcbnew,9.0.2
; #@! TF.FileFunction,Plated,1,2,PTH
FMAT,2
INCH
; #@! TA.AperFunction,Plated,PTH,ComponentDrill
T1C0.0118
; #@! TA.AperFunction,Plated,PTH,ComponentDrill
T2C0.0197
; #@! TA.AperFunction,Plated,PTH,ComponentDrill
T3C0.0315
; #@! TA.AperFunction,Plated,PTH,ComponentDrill
T4C0.0354
; #@! TA.AperFunction,Plated,PTH,ComponentDrill
T5C0.0362
; #@! TA.AperFunction,Plated,PTH,ComponentDrill
T6C0.0394
; #@! TA.AperFunction,Plated,PTH,ComponentDrill
T7C0.0433
; #@! TA.AperFunction,Plated,PTH,ComponentDrill
T8C0.0433
; #@! TA.AperFunction,Plated,PTH,ComponentDrill
T9C0.0906
; #@! TA.AperFunction,Plated,PTH,ComponentDrill
T10C0.1260
%
G90
G05
T1
X9.3799Y-1.8297
X9.3799Y-1.8691
X9.3799Y-1.9085
X9.3799Y-1.9478
X9.4193Y-1.8297
X9.4193Y-1.8691
X9.4193Y-1.9085
X9.4193Y-1.9478
X9.4587Y-1.8297
X9.4587Y-1.8691
X9.4587Y-1.9085
X9.4587Y-1.9478
X9.498Y-1.8297
X9.498Y-1.8691
X9.498Y-1.9085
X9.498Y-1.9478
T2
X5.6929Y-5.5512
X5.7206Y-5.4844
X5.7206Y-5.618
X5.7874Y-5.4567
X5.7874Y-5.6457
X5.8542Y-5.4844
X5.8542Y-5.618
X5.8819Y-5.5512
T3
X5.8287Y-4.4409
X5.8287Y-4.6378
X5.8504Y-5.2638
X5.9055Y-4.9685
X5.9685Y-4.4409
X5.9685Y-4.6378
X6.2224Y-4.8366
X6.5177Y-4.9429
T4
X6.2382Y-4.1024
X6.2382Y-4.378
X6.5531Y-4.1024
X6.5531Y-4.378
T5
X8.6654Y-5.0835
X8.6654Y-5.1866
X8.7638Y-5.0835
X8.7638Y-5.1866
X8.8425Y-5.0835
X8.8425Y-5.1866
X8.9409Y-5.0835
X8.9409Y-5.1866
X9.4606Y-5.0598
X9.4606Y-5.163
X9.5591Y-5.0598
X9.5591Y-5.163
X9.6378Y-5.0598
X9.6378Y-5.163
X9.7362Y-5.0598
X9.7362Y-5.163
T6
X5.7756Y-1.8091
X6.0709Y-3.4823
X6.378Y-3.4823
X6.6732Y-1.8091
X9.8071Y-2.937
X10.1063Y-2.937
X10.2126Y-1.1772
X10.2126Y-1.2772
X10.2126Y-1.3772
X10.2126Y-1.4772
X10.2126Y-1.5772
X10.2126Y-1.6772
X10.2126Y-1.7772
T7
X6.9567Y-3.9921
X6.9567Y-4.4449
X6.9567Y-4.7205
X7.1417Y-3.9921
X7.353Y-3.9921
X7.353Y-4.4449
X7.353Y-4.7205
X7.5381Y-3.9921
X7.7493Y-3.9921
X7.7493Y-4.4449
X7.7493Y-4.7205
X7.9344Y-3.9921
X8.1457Y-3.9921
X8.1457Y-4.4449
X8.1457Y-4.7205
X8.3307Y-3.9921
T8
X6.0823Y-4.6295
X6.1177Y-3.8508
X6.6728Y-4.6295
X6.7083Y-3.8508
T9
X8.5445Y-5.0697
X8.5445Y-5.2933
X9.0618Y-5.0697
X9.0618Y-5.2933
X9.3398Y-5.0461
X9.3398Y-5.2697
X9.8571Y-5.0461
X9.8571Y-5.2697
T10
X5.7874Y-5.5512
T3
G00X6.3307Y-1.374
M15
G01X6.3307Y-1.4606
M16
G05
G00X6.3976Y-1.6063
M15
G01X6.4843Y-1.6063
M16
G05
G00X6.5591Y-1.3661
M15
G01X6.5591Y-1.4685
M16
G05
T6
G00X6.2185Y-5.2598
M15
G01X6.2776Y-5.2598
M16
G05
G00X6.5925Y-5.2598
M15
G01X6.6516Y-5.2598
M16
G05
G00X6.9665Y-5.2598
M15
G01X7.0256Y-5.2598
M16
G05
G00X7.3406Y-5.2598
M15
G01X7.3996Y-5.2598
M16
G05
G00X7.7146Y-5.2598
M15
G01X7.7736Y-5.2598
M16
G05
G00X8.0886Y-5.2598
M15
G01X8.1476Y-5.2598
M16
G05
M30
