%TF.GenerationSoftware,KiCad,Pcbnew,9.0.2*%
%TF.CreationDate,2025-09-14T14:53:03+07:00*%
%TF.ProjectId,train1,74726169-6e31-42e6-9b69-6361645f7063,rev?*%
%TF.SameCoordinates,Original*%
%TF.FileFunction,Legend,Bot*%
%TF.FilePolarity,Positive*%
%FSLAX46Y46*%
G04 Gerber Fmt 4.6, Leading zero omitted, Abs format (unit mm)*
G04 Created by KiCad (PCBNEW 9.0.2) date 2025-09-14 14:53:03*
%MOMM*%
%LPD*%
G01*
G04 APERTURE LIST*
G04 Aperture macros list*
%AMOutline4P*
0 Free polygon, 4 corners , with rotation*
0 The origin of the aperture is its center*
0 number of corners: always 4*
0 $1 to $8 corner X, Y*
0 $9 Rotation angle, in degrees counterclockwise*
0 create outline with 4 corners*
4,1,4,$1,$2,$3,$4,$5,$6,$7,$8,$1,$2,$9*%
G04 Aperture macros list end*
%ADD10R,2.000000X2.000000*%
%ADD11C,2.000000*%
%ADD12O,1.700000X1.700000*%
%ADD13R,1.700000X1.700000*%
%ADD14C,1.607998*%
%ADD15C,1.600000*%
%ADD16R,1.500000X1.500000*%
%ADD17C,1.500000*%
%ADD18C,3.000000*%
%ADD19Outline4P,-0.750000X-0.750000X0.750000X-0.750000X0.750000X0.750000X-0.750000X0.750000X0.000000*%
%ADD20C,2.200000*%
%ADD21C,1.800000*%
%ADD22C,1.000000*%
%ADD23C,1.244600*%
%ADD24C,0.950000*%
%ADD25R,1.800000X4.400000*%
%ADD26O,1.800000X4.000000*%
%ADD27O,4.000000X1.800000*%
%ADD28O,4.000000X2.000000*%
%ADD29C,0.800000*%
%ADD30C,6.400000*%
G04 APERTURE END LIST*
%LPC*%
D10*
%TO.C,BZ1*%
X249100000Y-74600000D03*
D11*
X256700000Y-74600000D03*
%TD*%
D12*
%TO.C,J5*%
X259400000Y-45140000D03*
X259400000Y-42600000D03*
X259400000Y-40060000D03*
X259400000Y-37520000D03*
X259400000Y-34980000D03*
X259400000Y-32440000D03*
D13*
X259400000Y-29900000D03*
%TD*%
D14*
%TO.C,RL3*%
X186766665Y-101400000D03*
X186766665Y-112900000D03*
X186766665Y-119899998D03*
X191466666Y-101400000D03*
%TD*%
D15*
%TO.C,C2*%
X148050000Y-117800000D03*
X148050000Y-112800000D03*
%TD*%
D11*
%TO.C,PS1*%
X154200000Y-88450000D03*
X162000000Y-88450000D03*
X146700000Y-45950000D03*
X169500000Y-45950000D03*
%TD*%
D16*
%TO.C,J2*%
X220100000Y-129120000D03*
D17*
X222600000Y-129120000D03*
X224600000Y-129120000D03*
X227100000Y-129120000D03*
X220100000Y-131740000D03*
X222600000Y-131740000D03*
X224600000Y-131740000D03*
X227100000Y-131740000D03*
D18*
X217030000Y-128770000D03*
X217030000Y-134450000D03*
X230170000Y-128770000D03*
X230170000Y-134450000D03*
%TD*%
D19*
%TO.C,FL1*%
X158450000Y-104200000D03*
D17*
X158450000Y-111200000D03*
X166450000Y-104200000D03*
X166450000Y-111200000D03*
%TD*%
D14*
%TO.C,RL1*%
X196833331Y-101400000D03*
X196833331Y-112900000D03*
X196833331Y-119899998D03*
X201533332Y-101400000D03*
%TD*%
D20*
%TO.C,C1*%
X154490000Y-117590000D03*
X169490000Y-117590000D03*
%TD*%
%TO.C,C3*%
X155390000Y-97810000D03*
X170390000Y-97810000D03*
%TD*%
D14*
%TO.C,RL4*%
X176699999Y-101400000D03*
X176699999Y-112900000D03*
X176699999Y-119899998D03*
X181400000Y-101400000D03*
%TD*%
D21*
%TO.C,RV1*%
X158050000Y-122850000D03*
X165550000Y-125550000D03*
%TD*%
D22*
%TO.C,BT1*%
X208899998Y-69421500D03*
D23*
X208899998Y-61928500D03*
%TD*%
D24*
%TO.C,J6*%
X205725000Y-44625000D03*
X213725000Y-44625000D03*
%TD*%
D25*
%TO.C,J1*%
X166600000Y-36000000D03*
D26*
X160800000Y-36000000D03*
D27*
X163600000Y-40800000D03*
%TD*%
D14*
%TO.C,RL2*%
X206899999Y-101400000D03*
X206899999Y-112900000D03*
X206899999Y-119899998D03*
X211600000Y-101400000D03*
%TD*%
D21*
%TO.C,F1*%
X148600000Y-133700000D03*
X150000000Y-126200000D03*
%TD*%
D16*
%TO.C,J4*%
X240300000Y-128520000D03*
D17*
X242800000Y-128520000D03*
X244800000Y-128520000D03*
X247300000Y-128520000D03*
X240300000Y-131140000D03*
X242800000Y-131140000D03*
X244800000Y-131140000D03*
X247300000Y-131140000D03*
D18*
X237230000Y-128170000D03*
X237230000Y-133850000D03*
X250370000Y-128170000D03*
X250370000Y-133850000D03*
%TD*%
D28*
%TO.C,J3*%
X158700000Y-133600000D03*
X168200000Y-133600000D03*
X177700000Y-133600000D03*
X187200000Y-133600000D03*
X196700000Y-133600000D03*
X206200000Y-133600000D03*
%TD*%
D29*
%TO.C,H1*%
X144600000Y-141000000D03*
X145302944Y-139302944D03*
X145302944Y-142697056D03*
X147000000Y-138600000D03*
D30*
X147000000Y-141000000D03*
D29*
X147000000Y-143400000D03*
X148697056Y-139302944D03*
X148697056Y-142697056D03*
X149400000Y-141000000D03*
%TD*%
D15*
%TO.C,C4*%
X151600000Y-117800000D03*
X151600000Y-112800000D03*
%TD*%
%LPD*%
M02*
