%TF.GenerationSoftware,KiCad,Pcbnew,9.0.2*%
%TF.CreationDate,2025-09-14T14:53:03+07:00*%
%TF.ProjectId,train1,74726169-6e31-42e6-9b69-6361645f7063,rev?*%
%TF.SameCoordinates,Original*%
%TF.FileFunction,Legend,Top*%
%TF.FilePolarity,Positive*%
%FSLAX46Y46*%
G04 Gerber Fmt 4.6, Leading zero omitted, Abs format (unit mm)*
G04 Created by KiCad (PCBNEW 9.0.2) date 2025-09-14 14:53:03*
%MOMM*%
%LPD*%
G01*
G04 APERTURE LIST*
G04 Aperture macros list*
%AMRoundRect*
0 Rectangle with rounded corners*
0 $1 Rounding radius*
0 $2 $3 $4 $5 $6 $7 $8 $9 X,Y pos of 4 corners*
0 Add a 4 corners polygon primitive as box body*
4,1,4,$2,$3,$4,$5,$6,$7,$8,$9,$2,$3,0*
0 Add four circle primitives for the rounded corners*
1,1,$1+$1,$2,$3*
1,1,$1+$1,$4,$5*
1,1,$1+$1,$6,$7*
1,1,$1+$1,$8,$9*
0 Add four rect primitives between the rounded corners*
20,1,$1+$1,$2,$3,$4,$5,0*
20,1,$1+$1,$4,$5,$6,$7,0*
20,1,$1+$1,$6,$7,$8,$9,0*
20,1,$1+$1,$8,$9,$2,$3,0*%
%AMOutline4P*
0 Free polygon, 4 corners , with rotation*
0 The origin of the aperture is its center*
0 number of corners: always 4*
0 $1 to $8 corner X, Y*
0 $9 Rotation angle, in degrees counterclockwise*
0 create outline with 4 corners*
4,1,4,$1,$2,$3,$4,$5,$6,$7,$8,$1,$2,$9*%
%AMOutline5P*
0 Free polygon, 5 corners , with rotation*
0 The origin of the aperture is its center*
0 number of corners: always 5*
0 $1 to $10 corner X, Y*
0 $11 Rotation angle, in degrees counterclockwise*
0 create outline with 5 corners*
4,1,5,$1,$2,$3,$4,$5,$6,$7,$8,$9,$10,$1,$2,$11*%
%AMOutline6P*
0 Free polygon, 6 corners , with rotation*
0 The origin of the aperture is its center*
0 number of corners: always 6*
0 $1 to $12 corner X, Y*
0 $13 Rotation angle, in degrees counterclockwise*
0 create outline with 6 corners*
4,1,6,$1,$2,$3,$4,$5,$6,$7,$8,$9,$10,$11,$12,$1,$2,$13*%
%AMOutline7P*
0 Free polygon, 7 corners , with rotation*
0 The origin of the aperture is its center*
0 number of corners: always 7*
0 $1 to $14 corner X, Y*
0 $15 Rotation angle, in degrees counterclockwise*
0 create outline with 7 corners*
4,1,7,$1,$2,$3,$4,$5,$6,$7,$8,$9,$10,$11,$12,$13,$14,$1,$2,$15*%
%AMOutline8P*
0 Free polygon, 8 corners , with rotation*
0 The origin of the aperture is its center*
0 number of corners: always 8*
0 $1 to $16 corner X, Y*
0 $17 Rotation angle, in degrees counterclockwise*
0 create outline with 8 corners*
4,1,8,$1,$2,$3,$4,$5,$6,$7,$8,$9,$10,$11,$12,$13,$14,$15,$16,$1,$2,$17*%
%AMFreePoly0*
4,1,23,0.550000,-0.750000,0.000000,-0.750000,0.000000,-0.745722,-0.065263,-0.745722,-0.191342,-0.711940,-0.304381,-0.646677,-0.396677,-0.554381,-0.461940,-0.441342,-0.495722,-0.315263,-0.495722,-0.250000,-0.500000,-0.250000,-0.500000,0.250000,-0.495722,0.250000,-0.495722,0.315263,-0.461940,0.441342,-0.396677,0.554381,-0.304381,0.646677,-0.191342,0.711940,-0.065263,0.745722,0.000000,0.745722,
0.000000,0.750000,0.550000,0.750000,0.550000,-0.750000,0.550000,-0.750000,$1*%
%AMFreePoly1*
4,1,23,0.000000,0.745722,0.065263,0.745722,0.191342,0.711940,0.304381,0.646677,0.396677,0.554381,0.461940,0.441342,0.495722,0.315263,0.495722,0.250000,0.500000,0.250000,0.500000,-0.250000,0.495722,-0.250000,0.495722,-0.315263,0.461940,-0.441342,0.396677,-0.554381,0.304381,-0.646677,0.191342,-0.711940,0.065263,-0.745722,0.000000,-0.745722,0.000000,-0.750000,-0.550000,-0.750000,
-0.550000,0.750000,0.000000,0.750000,0.000000,0.745722,0.000000,0.745722,$1*%
G04 Aperture macros list end*
%ADD10C,0.150000*%
%ADD11C,0.200000*%
%ADD12C,0.250000*%
%ADD13C,0.120000*%
%ADD14C,0.100000*%
%ADD15C,0.283607*%
%ADD16C,0.425960*%
%ADD17C,0.300000*%
%ADD18R,2.000000X2.000000*%
%ADD19C,2.000000*%
%ADD20O,1.700000X1.700000*%
%ADD21R,1.700000X1.700000*%
%ADD22R,2.700000X3.600000*%
%ADD23RoundRect,0.275000X0.275000X0.275000X-0.275000X0.275000X-0.275000X-0.275000X0.275000X-0.275000X0*%
%ADD24RoundRect,0.180000X1.020000X0.720000X-1.020000X0.720000X-1.020000X-0.720000X1.020000X-0.720000X0*%
%ADD25RoundRect,0.085000X0.340000X0.365000X-0.340000X0.365000X-0.340000X-0.365000X0.340000X-0.365000X0*%
%ADD26RoundRect,0.085000X-0.340000X-0.365000X0.340000X-0.365000X0.340000X0.365000X-0.340000X0.365000X0*%
%ADD27RoundRect,0.250000X0.312500X1.450000X-0.312500X1.450000X-0.312500X-1.450000X0.312500X-1.450000X0*%
%ADD28RoundRect,0.127500X0.322500X-0.297500X0.322500X0.297500X-0.322500X0.297500X-0.322500X-0.297500X0*%
%ADD29RoundRect,0.150000X-0.825000X-0.150000X0.825000X-0.150000X0.825000X0.150000X-0.825000X0.150000X0*%
%ADD30Outline5P,-0.975000X0.000000X-0.675000X0.300000X0.975000X0.300000X0.975000X-0.300000X-0.975000X-0.300000X0.000000*%
%ADD31RoundRect,0.127500X-0.297500X-0.322500X0.297500X-0.322500X0.297500X0.322500X-0.297500X0.322500X0*%
%ADD32Outline5P,-0.750000X0.120000X-0.570000X0.300000X0.750000X0.300000X0.750000X-0.300000X-0.750000X-0.300000X0.000000*%
%ADD33R,1.500000X0.600000*%
%ADD34RoundRect,0.085000X0.365000X-0.340000X0.365000X0.340000X-0.365000X0.340000X-0.365000X-0.340000X0*%
%ADD35C,1.607998*%
%ADD36C,1.600000*%
%ADD37R,1.500000X1.500000*%
%ADD38C,1.500000*%
%ADD39C,3.000000*%
%ADD40RoundRect,0.085000X-0.365000X0.340000X-0.365000X-0.340000X0.365000X-0.340000X0.365000X0.340000X0*%
%ADD41Outline4P,-0.750000X-0.750000X0.750000X-0.750000X0.750000X0.750000X-0.750000X0.750000X0.000000*%
%ADD42RoundRect,0.090000X-0.410000X-0.210000X0.410000X-0.210000X0.410000X0.210000X-0.410000X0.210000X0*%
%ADD43Outline5P,-1.025000X0.000000X-0.725000X0.300000X1.025000X0.300000X1.025000X-0.300000X-1.025000X-0.300000X0.000000*%
%ADD44RoundRect,0.150000X-0.875000X-0.150000X0.875000X-0.150000X0.875000X0.150000X-0.875000X0.150000X0*%
%ADD45C,2.200000*%
%ADD46RoundRect,0.275000X0.275000X-0.275000X0.275000X0.275000X-0.275000X0.275000X-0.275000X-0.275000X0*%
%ADD47RoundRect,0.162500X-0.162500X0.362500X-0.162500X-0.362500X0.162500X-0.362500X0.162500X0.362500X0*%
%ADD48RoundRect,0.090000X-0.210000X0.410000X-0.210000X-0.410000X0.210000X-0.410000X0.210000X0.410000X0*%
%ADD49C,1.800000*%
%ADD50C,1.000000*%
%ADD51C,1.244600*%
%ADD52RoundRect,0.647700X0.647700X-1.155700X0.647700X1.155700X-0.647700X1.155700X-0.647700X-1.155700X0*%
%ADD53R,1.500000X0.900000*%
%ADD54R,0.900000X1.500000*%
%ADD55C,0.600000*%
%ADD56R,4.100000X4.100000*%
%ADD57R,0.800000X0.600000*%
%ADD58FreePoly0,0.000000*%
%ADD59R,1.000000X1.500000*%
%ADD60FreePoly1,0.000000*%
%ADD61RoundRect,0.090000X0.410000X0.210000X-0.410000X0.210000X-0.410000X-0.210000X0.410000X-0.210000X0*%
%ADD62C,0.950000*%
%ADD63R,0.620000X1.400000*%
%ADD64R,1.100000X2.400000*%
%ADD65R,1.800000X4.400000*%
%ADD66O,1.800000X4.000000*%
%ADD67O,4.000000X1.800000*%
%ADD68RoundRect,0.250000X0.550000X-1.500000X0.550000X1.500000X-0.550000X1.500000X-0.550000X-1.500000X0*%
%ADD69R,1.500000X2.000000*%
%ADD70R,3.800000X2.000000*%
%ADD71Outline5P,-0.975000X0.000000X-0.675000X0.300000X0.975000X0.300000X0.975000X-0.300000X-0.975000X-0.300000X180.000000*%
%ADD72RoundRect,0.150000X0.825000X0.150000X-0.825000X0.150000X-0.825000X-0.150000X0.825000X-0.150000X0*%
%ADD73O,4.000000X2.000000*%
%ADD74C,0.800000*%
%ADD75C,6.400000*%
%ADD76RoundRect,0.127500X0.297500X0.322500X-0.297500X0.322500X-0.297500X-0.322500X0.297500X-0.322500X0*%
G04 APERTURE END LIST*
D10*
X248709048Y-72133866D02*
X249470953Y-72133866D01*
X249090000Y-72514819D02*
X249090000Y-71752914D01*
D11*
X162340647Y-108590476D02*
X162340647Y-108857142D01*
X162759695Y-108857142D02*
X161959695Y-108857142D01*
X161959695Y-108857142D02*
X161959695Y-108476190D01*
X162759695Y-107790476D02*
X162759695Y-108171428D01*
X162759695Y-108171428D02*
X161959695Y-108171428D01*
X162759695Y-107104762D02*
X162759695Y-107561905D01*
X162759695Y-107333333D02*
X161959695Y-107333333D01*
X161959695Y-107333333D02*
X162073980Y-107409524D01*
X162073980Y-107409524D02*
X162150171Y-107485714D01*
X162150171Y-107485714D02*
X162188266Y-107561905D01*
D12*
X235738094Y-36388904D02*
X236214284Y-36388904D01*
X235642856Y-36674619D02*
X235976189Y-35674619D01*
X235976189Y-35674619D02*
X236309522Y-36674619D01*
X236642856Y-36007952D02*
X236642856Y-36674619D01*
X236642856Y-36103190D02*
X236690475Y-36055571D01*
X236690475Y-36055571D02*
X236785713Y-36007952D01*
X236785713Y-36007952D02*
X236928570Y-36007952D01*
X236928570Y-36007952D02*
X237023808Y-36055571D01*
X237023808Y-36055571D02*
X237071427Y-36150809D01*
X237071427Y-36150809D02*
X237071427Y-36674619D01*
X237404761Y-36007952D02*
X237785713Y-36007952D01*
X237547618Y-35674619D02*
X237547618Y-36531761D01*
X237547618Y-36531761D02*
X237595237Y-36627000D01*
X237595237Y-36627000D02*
X237690475Y-36674619D01*
X237690475Y-36674619D02*
X237785713Y-36674619D01*
X238499999Y-36627000D02*
X238404761Y-36674619D01*
X238404761Y-36674619D02*
X238214285Y-36674619D01*
X238214285Y-36674619D02*
X238119047Y-36627000D01*
X238119047Y-36627000D02*
X238071428Y-36531761D01*
X238071428Y-36531761D02*
X238071428Y-36150809D01*
X238071428Y-36150809D02*
X238119047Y-36055571D01*
X238119047Y-36055571D02*
X238214285Y-36007952D01*
X238214285Y-36007952D02*
X238404761Y-36007952D01*
X238404761Y-36007952D02*
X238499999Y-36055571D01*
X238499999Y-36055571D02*
X238547618Y-36150809D01*
X238547618Y-36150809D02*
X238547618Y-36246047D01*
X238547618Y-36246047D02*
X238071428Y-36341285D01*
X238976190Y-36007952D02*
X238976190Y-36674619D01*
X238976190Y-36103190D02*
X239023809Y-36055571D01*
X239023809Y-36055571D02*
X239119047Y-36007952D01*
X239119047Y-36007952D02*
X239261904Y-36007952D01*
X239261904Y-36007952D02*
X239357142Y-36055571D01*
X239357142Y-36055571D02*
X239404761Y-36150809D01*
X239404761Y-36150809D02*
X239404761Y-36674619D01*
X239880952Y-36007952D02*
X239880952Y-36674619D01*
X239880952Y-36103190D02*
X239928571Y-36055571D01*
X239928571Y-36055571D02*
X240023809Y-36007952D01*
X240023809Y-36007952D02*
X240166666Y-36007952D01*
X240166666Y-36007952D02*
X240261904Y-36055571D01*
X240261904Y-36055571D02*
X240309523Y-36150809D01*
X240309523Y-36150809D02*
X240309523Y-36674619D01*
X241214285Y-36674619D02*
X241214285Y-36150809D01*
X241214285Y-36150809D02*
X241166666Y-36055571D01*
X241166666Y-36055571D02*
X241071428Y-36007952D01*
X241071428Y-36007952D02*
X240880952Y-36007952D01*
X240880952Y-36007952D02*
X240785714Y-36055571D01*
X241214285Y-36627000D02*
X241119047Y-36674619D01*
X241119047Y-36674619D02*
X240880952Y-36674619D01*
X240880952Y-36674619D02*
X240785714Y-36627000D01*
X240785714Y-36627000D02*
X240738095Y-36531761D01*
X240738095Y-36531761D02*
X240738095Y-36436523D01*
X240738095Y-36436523D02*
X240785714Y-36341285D01*
X240785714Y-36341285D02*
X240880952Y-36293666D01*
X240880952Y-36293666D02*
X241119047Y-36293666D01*
X241119047Y-36293666D02*
X241214285Y-36246047D01*
X242404762Y-36388904D02*
X242880952Y-36388904D01*
X242309524Y-36674619D02*
X242642857Y-35674619D01*
X242642857Y-35674619D02*
X242976190Y-36674619D01*
X243309524Y-36674619D02*
X243309524Y-36007952D01*
X243309524Y-36198428D02*
X243357143Y-36103190D01*
X243357143Y-36103190D02*
X243404762Y-36055571D01*
X243404762Y-36055571D02*
X243500000Y-36007952D01*
X243500000Y-36007952D02*
X243595238Y-36007952D01*
X244309524Y-36627000D02*
X244214286Y-36674619D01*
X244214286Y-36674619D02*
X244023810Y-36674619D01*
X244023810Y-36674619D02*
X243928572Y-36627000D01*
X243928572Y-36627000D02*
X243880953Y-36531761D01*
X243880953Y-36531761D02*
X243880953Y-36150809D01*
X243880953Y-36150809D02*
X243928572Y-36055571D01*
X243928572Y-36055571D02*
X244023810Y-36007952D01*
X244023810Y-36007952D02*
X244214286Y-36007952D01*
X244214286Y-36007952D02*
X244309524Y-36055571D01*
X244309524Y-36055571D02*
X244357143Y-36150809D01*
X244357143Y-36150809D02*
X244357143Y-36246047D01*
X244357143Y-36246047D02*
X243880953Y-36341285D01*
X245214286Y-36674619D02*
X245214286Y-36150809D01*
X245214286Y-36150809D02*
X245166667Y-36055571D01*
X245166667Y-36055571D02*
X245071429Y-36007952D01*
X245071429Y-36007952D02*
X244880953Y-36007952D01*
X244880953Y-36007952D02*
X244785715Y-36055571D01*
X245214286Y-36627000D02*
X245119048Y-36674619D01*
X245119048Y-36674619D02*
X244880953Y-36674619D01*
X244880953Y-36674619D02*
X244785715Y-36627000D01*
X244785715Y-36627000D02*
X244738096Y-36531761D01*
X244738096Y-36531761D02*
X244738096Y-36436523D01*
X244738096Y-36436523D02*
X244785715Y-36341285D01*
X244785715Y-36341285D02*
X244880953Y-36293666D01*
X244880953Y-36293666D02*
X245119048Y-36293666D01*
X245119048Y-36293666D02*
X245214286Y-36246047D01*
D10*
X220100714Y-51854819D02*
X219529286Y-51854819D01*
X219815000Y-51854819D02*
X219815000Y-50854819D01*
X219815000Y-50854819D02*
X219719762Y-50997676D01*
X219719762Y-50997676D02*
X219624524Y-51092914D01*
X219624524Y-51092914D02*
X219529286Y-51140533D01*
X224681667Y-50854819D02*
X225300714Y-50854819D01*
X225300714Y-50854819D02*
X224967381Y-51235771D01*
X224967381Y-51235771D02*
X225110238Y-51235771D01*
X225110238Y-51235771D02*
X225205476Y-51283390D01*
X225205476Y-51283390D02*
X225253095Y-51331009D01*
X225253095Y-51331009D02*
X225300714Y-51426247D01*
X225300714Y-51426247D02*
X225300714Y-51664342D01*
X225300714Y-51664342D02*
X225253095Y-51759580D01*
X225253095Y-51759580D02*
X225205476Y-51807200D01*
X225205476Y-51807200D02*
X225110238Y-51854819D01*
X225110238Y-51854819D02*
X224824524Y-51854819D01*
X224824524Y-51854819D02*
X224729286Y-51807200D01*
X224729286Y-51807200D02*
X224681667Y-51759580D01*
D13*
%TO.C,BZ1*%
X259000000Y-74600000D02*
G75*
G02*
X246800000Y-74600000I-6100000J0D01*
G01*
X246800000Y-74600000D02*
G75*
G02*
X259000000Y-74600000I6100000J0D01*
G01*
%TO.C,J5*%
X260730000Y-31170000D02*
X260730000Y-46470000D01*
X258070000Y-46470000D02*
X260730000Y-46470000D01*
X258070000Y-31170000D02*
X260730000Y-31170000D01*
X258070000Y-31170000D02*
X258070000Y-46470000D01*
X258070000Y-29900000D02*
X258070000Y-28570000D01*
X258070000Y-28570000D02*
X259400000Y-28570000D01*
D12*
%TO.C,L1*%
X179283987Y-29701648D02*
G75*
G02*
X179703986Y-30141648I5922J-414801D01*
G01*
X171000000Y-40300000D02*
G75*
G02*
X169100004Y-38720000I-139040J1765200D01*
G01*
X179703987Y-30141648D02*
X179700000Y-32625000D01*
X179400000Y-37475000D02*
X176570000Y-40300000D01*
X176570000Y-40300000D02*
X171000000Y-40300000D01*
X172280000Y-29710000D02*
X179283987Y-29701648D01*
X169325000Y-32625000D02*
X172280000Y-29710000D01*
X169100000Y-38720000D02*
X169100000Y-37275000D01*
X169100000Y-38350000D02*
X171110000Y-40300000D01*
%TO.C,Z2*%
D13*
X176435000Y-46600000D02*
X176205000Y-46600000D01*
X176205000Y-44170000D01*
X176435000Y-44170000D01*
X176435000Y-46600000D01*
G36*
X176435000Y-46600000D02*
G01*
X176205000Y-46600000D01*
X176205000Y-44170000D01*
X176435000Y-44170000D01*
X176435000Y-46600000D01*
G37*
D12*
X177235000Y-44230000D02*
X177235000Y-44480000D01*
X177225000Y-46540000D02*
X177225000Y-46290000D01*
X177225000Y-46540000D02*
X174025000Y-46540000D01*
X174035000Y-44230000D02*
X177235000Y-44230000D01*
X174025000Y-46540000D02*
X174025000Y-46290000D01*
X174025000Y-44485000D02*
X174025000Y-44235000D01*
%TO.C,D2*%
X185700000Y-44700000D02*
X185350000Y-44700000D01*
X185350000Y-44250000D01*
X185700000Y-44250000D01*
X185700000Y-44700000D01*
G36*
X185700000Y-44700000D02*
G01*
X185350000Y-44700000D01*
X185350000Y-44250000D01*
X185700000Y-44250000D01*
X185700000Y-44700000D01*
G37*
X185700000Y-41950000D02*
X185350000Y-41950000D01*
X185350000Y-41550000D01*
X185700000Y-41550000D01*
X185700000Y-41950000D01*
G36*
X185700000Y-41950000D02*
G01*
X185350000Y-41950000D01*
X185350000Y-41550000D01*
X185700000Y-41550000D01*
X185700000Y-41950000D01*
G37*
X186650000Y-44700000D02*
X186650000Y-44300000D01*
X186650000Y-44700000D02*
X182000000Y-44700000D01*
X186600000Y-41950000D02*
X186600000Y-41550000D01*
X186600000Y-41550000D02*
X182050000Y-41550000D01*
X182050000Y-41550000D02*
X182050000Y-41950000D01*
X182000000Y-44700000D02*
X182000000Y-44300000D01*
%TO.C,C10*%
X176875000Y-42780000D02*
X176575000Y-42780000D01*
X176875000Y-42180000D02*
X176575000Y-42180000D01*
%TO.C,C14*%
X175510000Y-57200000D02*
X175810000Y-57200000D01*
X175510000Y-56600000D02*
X175810000Y-56600000D01*
%TO.C,F2*%
X187715000Y-40260000D02*
X181495000Y-40260000D01*
X181495000Y-36040000D01*
X187715000Y-36040000D01*
X187715000Y-40260000D01*
%TO.C,C17*%
X179050000Y-54900000D02*
X179350000Y-54900000D01*
X179050000Y-54300000D02*
X179350000Y-54300000D01*
%TO.C,R6*%
X182810000Y-54950000D02*
X183110000Y-54950000D01*
X182810000Y-54350000D02*
X183110000Y-54350000D01*
D14*
%TO.C,LE4*%
X185700000Y-54350000D02*
X185300000Y-53950000D01*
X186100000Y-53950000D01*
X185700000Y-54350000D01*
G36*
X185700000Y-54350000D02*
G01*
X185300000Y-53950000D01*
X186100000Y-53950000D01*
X185700000Y-54350000D01*
G37*
D12*
X186400000Y-55650000D02*
X186400000Y-53875000D01*
D11*
X185300000Y-54350000D02*
X186100000Y-54350000D01*
D12*
X185000000Y-55650000D02*
X186400000Y-55650000D01*
X185000000Y-55650000D02*
X185000000Y-53800000D01*
%TO.C,C16*%
X179050000Y-52650000D02*
X179350000Y-52650000D01*
X179050000Y-52050000D02*
X179350000Y-52050000D01*
%TO.C,C15*%
X175510000Y-59450000D02*
X175810000Y-59450000D01*
X175510000Y-58850000D02*
X175810000Y-58850000D01*
%TO.C,C8*%
X184950000Y-34500000D02*
X184650000Y-34500000D01*
X184950000Y-33900000D02*
X184650000Y-33900000D01*
%TO.C,U1*%
D15*
X182866803Y-45415000D02*
G75*
G02*
X182583197Y-45415000I-141803J0D01*
G01*
X182583197Y-45415000D02*
G75*
G02*
X182866803Y-45415000I141803J0D01*
G01*
D12*
X185935000Y-45695000D02*
G75*
G02*
X184814942Y-45695000I-560029J-3285D01*
G01*
X187325000Y-50625000D02*
X187325000Y-50735000D01*
X187325000Y-49615000D02*
X187325000Y-49375000D01*
X187325000Y-48335000D02*
X187325000Y-48095000D01*
X187325000Y-47075000D02*
X187325000Y-46835000D01*
X187315000Y-45805000D02*
X187315000Y-45695000D01*
X187315000Y-45695000D02*
X183415000Y-45695000D01*
X184175000Y-45725000D02*
X184175000Y-50725000D01*
X183425000Y-50735000D02*
X187325000Y-50735000D01*
X183425000Y-50625000D02*
X183425000Y-50735000D01*
X183425000Y-49615000D02*
X183425000Y-49375000D01*
X183425000Y-48345000D02*
X183425000Y-48105000D01*
X183425000Y-47085000D02*
X183425000Y-46845000D01*
X183415000Y-45805000D02*
X183415000Y-45695000D01*
%TO.C,R17*%
X257050000Y-101105000D02*
X257350000Y-101105000D01*
X257050000Y-100505000D02*
X257350000Y-100505000D01*
%TO.C,C25*%
X253400000Y-103355000D02*
X253700000Y-103355000D01*
X253400000Y-102755000D02*
X253700000Y-102755000D01*
D14*
%TO.C,LE12*%
X254050000Y-118355000D02*
X253650000Y-117955000D01*
X254050000Y-117555000D01*
X254050000Y-118355000D01*
G36*
X254050000Y-118355000D02*
G01*
X253650000Y-117955000D01*
X254050000Y-117555000D01*
X254050000Y-118355000D01*
G37*
D11*
X253650000Y-117555000D02*
X253650000Y-118355000D01*
D12*
X252350000Y-118655000D02*
X254125000Y-118655000D01*
X252350000Y-117255000D02*
X254200000Y-117255000D01*
X252350000Y-117255000D02*
X252350000Y-118655000D01*
%TO.C,U9*%
X245050000Y-117855000D02*
X249025000Y-117855000D01*
X249025000Y-121955000D01*
X245050000Y-121955000D01*
X245050000Y-117855000D01*
D16*
X244087980Y-117580000D02*
G75*
G02*
X243662020Y-117580000I-212980J0D01*
G01*
X243662020Y-117580000D02*
G75*
G02*
X244087980Y-117580000I212980J0D01*
G01*
D13*
X245025000Y-119405000D02*
X245050000Y-117855000D01*
X246575000Y-117855000D01*
X245025000Y-119405000D01*
G36*
X245025000Y-119405000D02*
G01*
X245050000Y-117855000D01*
X246575000Y-117855000D01*
X245025000Y-119405000D01*
G37*
D14*
%TO.C,LE2*%
X254050000Y-110405000D02*
X253650000Y-110005000D01*
X254050000Y-109605000D01*
X254050000Y-110405000D01*
G36*
X254050000Y-110405000D02*
G01*
X253650000Y-110005000D01*
X254050000Y-109605000D01*
X254050000Y-110405000D01*
G37*
D11*
X253650000Y-109605000D02*
X253650000Y-110405000D01*
D12*
X252350000Y-110705000D02*
X254125000Y-110705000D01*
X252350000Y-109305000D02*
X254200000Y-109305000D01*
X252350000Y-109305000D02*
X252350000Y-110705000D01*
%TO.C,C13*%
X253400000Y-101105000D02*
X253700000Y-101105000D01*
X253400000Y-100505000D02*
X253700000Y-100505000D01*
D14*
%TO.C,LE9*%
X254050000Y-115705000D02*
X253650000Y-115305000D01*
X254050000Y-114905000D01*
X254050000Y-115705000D01*
G36*
X254050000Y-115705000D02*
G01*
X253650000Y-115305000D01*
X254050000Y-114905000D01*
X254050000Y-115705000D01*
G37*
D11*
X253650000Y-114905000D02*
X253650000Y-115705000D01*
D12*
X252350000Y-116005000D02*
X254125000Y-116005000D01*
X252350000Y-114605000D02*
X254200000Y-114605000D01*
X252350000Y-114605000D02*
X252350000Y-116005000D01*
D13*
%TO.C,U8*%
X245025000Y-113080000D02*
X245050000Y-111530000D01*
X246575000Y-111530000D01*
X245025000Y-113080000D01*
G36*
X245025000Y-113080000D02*
G01*
X245050000Y-111530000D01*
X246575000Y-111530000D01*
X245025000Y-113080000D01*
G37*
D16*
X244087980Y-111255000D02*
G75*
G02*
X243662020Y-111255000I-212980J0D01*
G01*
X243662020Y-111255000D02*
G75*
G02*
X244087980Y-111255000I212980J0D01*
G01*
D12*
X245050000Y-111530000D02*
X249025000Y-111530000D01*
X249025000Y-115630000D01*
X245050000Y-115630000D01*
X245050000Y-111530000D01*
%TO.C,R4*%
X253400000Y-107855000D02*
X253700000Y-107855000D01*
X253400000Y-107255000D02*
X253700000Y-107255000D01*
%TO.C,R3*%
X253400000Y-105605000D02*
X253700000Y-105605000D01*
X253400000Y-105005000D02*
X253700000Y-105005000D01*
D13*
%TO.C,U5*%
X245025000Y-100430000D02*
X245050000Y-98880000D01*
X246575000Y-98880000D01*
X245025000Y-100430000D01*
G36*
X245025000Y-100430000D02*
G01*
X245050000Y-98880000D01*
X246575000Y-98880000D01*
X245025000Y-100430000D01*
G37*
D16*
X244087980Y-98605000D02*
G75*
G02*
X243662020Y-98605000I-212980J0D01*
G01*
X243662020Y-98605000D02*
G75*
G02*
X244087980Y-98605000I212980J0D01*
G01*
D12*
X245050000Y-98880000D02*
X249025000Y-98880000D01*
X249025000Y-102980000D01*
X245050000Y-102980000D01*
X245050000Y-98880000D01*
%TO.C,R20*%
X257050000Y-107855000D02*
X257350000Y-107855000D01*
X257050000Y-107255000D02*
X257350000Y-107255000D01*
%TO.C,R19*%
X257050000Y-105605000D02*
X257350000Y-105605000D01*
X257050000Y-105005000D02*
X257350000Y-105005000D01*
D13*
%TO.C,U6*%
X245025000Y-106755000D02*
X245050000Y-105205000D01*
X246575000Y-105205000D01*
X245025000Y-106755000D01*
G36*
X245025000Y-106755000D02*
G01*
X245050000Y-105205000D01*
X246575000Y-105205000D01*
X245025000Y-106755000D01*
G37*
D16*
X244087980Y-104930000D02*
G75*
G02*
X243662020Y-104930000I-212980J0D01*
G01*
X243662020Y-104930000D02*
G75*
G02*
X244087980Y-104930000I212980J0D01*
G01*
D12*
X245050000Y-105205000D02*
X249025000Y-105205000D01*
X249025000Y-109305000D01*
X245050000Y-109305000D01*
X245050000Y-105205000D01*
%TO.C,R18*%
X257050000Y-103355000D02*
X257350000Y-103355000D01*
X257050000Y-102755000D02*
X257350000Y-102755000D01*
D14*
%TO.C,LE3*%
X254050000Y-113055000D02*
X253650000Y-112655000D01*
X254050000Y-112255000D01*
X254050000Y-113055000D01*
G36*
X254050000Y-113055000D02*
G01*
X253650000Y-112655000D01*
X254050000Y-112255000D01*
X254050000Y-113055000D01*
G37*
D11*
X253650000Y-112255000D02*
X253650000Y-113055000D01*
D12*
X252350000Y-113355000D02*
X254125000Y-113355000D01*
X252350000Y-111955000D02*
X254200000Y-111955000D01*
X252350000Y-111955000D02*
X252350000Y-113355000D01*
%TO.C,R1*%
X202350000Y-51900000D02*
X202350000Y-51600000D01*
X202950000Y-51900000D02*
X202950000Y-51600000D01*
%TO.C,R9*%
X197437500Y-95887499D02*
X197437500Y-95587499D01*
X198037500Y-95887499D02*
X198037500Y-95587499D01*
%TO.C,R36*%
X219950000Y-68500000D02*
X220250000Y-68500000D01*
X219950000Y-69100000D02*
X220250000Y-69100000D01*
%TO.C,LE14*%
X220215000Y-56450000D02*
X220215000Y-57850000D01*
X220215000Y-56450000D02*
X222065000Y-56450000D01*
X220215000Y-57850000D02*
X221990000Y-57850000D01*
D11*
X221515000Y-56750000D02*
X221515000Y-57550000D01*
D14*
X221915000Y-57550000D02*
X221515000Y-57150000D01*
X221915000Y-56750000D01*
X221915000Y-57550000D01*
G36*
X221915000Y-57550000D02*
G01*
X221515000Y-57150000D01*
X221915000Y-56750000D01*
X221915000Y-57550000D01*
G37*
%TO.C,RL3*%
D12*
X185366666Y-100099999D02*
X192841666Y-100099999D01*
X192841666Y-120999999D01*
X185366666Y-120999999D01*
X185366666Y-100099999D01*
%TO.C,C12*%
X253400000Y-98255000D02*
X253700000Y-98255000D01*
X253400000Y-98855000D02*
X253700000Y-98855000D01*
D13*
%TO.C,C2*%
X146930000Y-111680000D02*
X149170000Y-111680000D01*
X146930000Y-118920000D02*
X146930000Y-111680000D01*
X146930000Y-118920000D02*
X149170000Y-118920000D01*
X149170000Y-118920000D02*
X149170000Y-111680000D01*
D14*
%TO.C,PS1*%
X144200000Y-43750000D02*
X172000000Y-43750000D01*
X144200000Y-90650000D02*
X144200000Y-43750000D01*
D13*
X166100000Y-45500000D02*
X168100000Y-45500000D01*
X167100000Y-46500000D02*
X167100000Y-44500000D01*
D14*
X172000000Y-43750000D02*
X172000000Y-90650000D01*
X172000000Y-90650000D02*
X144200000Y-90650000D01*
D12*
X144200000Y-90650000D02*
X172000000Y-90650000D01*
X172000000Y-43750000D01*
X144200000Y-43750000D01*
X144200000Y-90650000D01*
%TO.C,R38*%
X165125000Y-56850000D02*
X165425000Y-56850000D01*
X165125000Y-57450000D02*
X165425000Y-57450000D01*
%TO.C,LE8*%
X202200000Y-98087500D02*
X202200000Y-96237500D01*
X202200000Y-98087500D02*
X203600000Y-98087500D01*
D11*
X202500000Y-96787500D02*
X203300000Y-96787500D01*
D12*
X203600000Y-98087500D02*
X203600000Y-96312500D01*
D14*
X202900000Y-96787500D02*
X202500000Y-96387500D01*
X203300000Y-96387500D01*
X202900000Y-96787500D01*
G36*
X202900000Y-96787500D02*
G01*
X202500000Y-96387500D01*
X203300000Y-96387500D01*
X202900000Y-96787500D01*
G37*
D12*
%TO.C,R32*%
X258135000Y-63950000D02*
X258435000Y-63950000D01*
X258135000Y-64550000D02*
X258435000Y-64550000D01*
%TO.C,R23*%
X232250000Y-121100000D02*
X232550000Y-121100000D01*
X232250000Y-121700000D02*
X232550000Y-121700000D01*
%TO.C,J2*%
X217290000Y-132700000D02*
X217290000Y-130520000D01*
X217290000Y-144720000D02*
X217290000Y-136200000D01*
X217290000Y-144720000D02*
X229900000Y-144720000D01*
X218410000Y-127670000D02*
X228790000Y-127670000D01*
X229910000Y-132700000D02*
X229910000Y-130520000D01*
X229910000Y-136200000D02*
X229900000Y-144720000D01*
%TO.C,D7*%
X181007500Y-95849999D02*
X181007500Y-95599999D01*
X181007500Y-97904999D02*
X181007500Y-97654999D01*
X181017500Y-95594999D02*
X184217500Y-95594999D01*
X184207500Y-97904999D02*
X181007500Y-97904999D01*
X184207500Y-97904999D02*
X184207500Y-97654999D01*
X184217500Y-95594999D02*
X184217500Y-95844999D01*
D13*
X183417500Y-97964999D02*
X183187500Y-97964999D01*
X183187500Y-95534999D01*
X183417500Y-95534999D01*
X183417500Y-97964999D01*
G36*
X183417500Y-97964999D02*
G01*
X183187500Y-97964999D01*
X183187500Y-95534999D01*
X183417500Y-95534999D01*
X183417500Y-97964999D01*
G37*
D12*
%TO.C,R14*%
X175819999Y-91665000D02*
X175819999Y-91965000D01*
X176419999Y-91665000D02*
X176419999Y-91965000D01*
%TO.C,C6*%
X197850000Y-55550000D02*
X197850000Y-55250000D01*
X198450000Y-55550000D02*
X198450000Y-55250000D01*
%TO.C,C11*%
X191765000Y-40800000D02*
X191465000Y-40800000D01*
X191765000Y-41400000D02*
X191465000Y-41400000D01*
%TO.C,R22*%
X237500000Y-86975000D02*
X237500000Y-86675000D01*
X238100000Y-86975000D02*
X238100000Y-86675000D01*
D13*
%TO.C,FL1*%
X157550000Y-102900000D02*
X161750000Y-102900000D01*
X157550000Y-112100000D02*
X161750000Y-112100000D01*
X163050000Y-102900000D02*
X167350000Y-102900000D01*
X163050000Y-112100000D02*
X167350000Y-112100000D01*
X154350000Y-106600000D02*
X156350000Y-106600000D01*
X156350000Y-105500000D01*
X154350000Y-105500000D01*
X154350000Y-106600000D01*
X154350000Y-106600000D02*
X170550000Y-106600000D01*
X170550000Y-109600000D01*
X154350000Y-109600000D01*
X154350000Y-106600000D01*
X156350000Y-106600000D02*
X157550000Y-106600000D01*
X157550000Y-101800000D01*
X156350000Y-101800000D01*
X156350000Y-106600000D01*
X156350000Y-109600000D02*
X157550000Y-109600000D01*
X157550000Y-113100000D01*
X156350000Y-113100000D01*
X156350000Y-109600000D01*
X161750000Y-106600000D02*
X163050000Y-106600000D01*
X163050000Y-101800000D01*
X161750000Y-101800000D01*
X161750000Y-106600000D01*
X163050000Y-113100000D02*
X161750000Y-113100000D01*
X161750000Y-109600000D01*
X163050000Y-109600000D01*
X163050000Y-113100000D01*
X167350000Y-106600000D02*
X168550000Y-106600000D01*
X168550000Y-101800000D01*
X167350000Y-101800000D01*
X167350000Y-106600000D01*
X168550000Y-106600000D02*
X170550000Y-106600000D01*
X170550000Y-105500000D01*
X168550000Y-105500000D01*
X168550000Y-106600000D01*
X168550000Y-113100000D02*
X167350000Y-113100000D01*
X167350000Y-109600000D01*
X168550000Y-109600000D01*
X168550000Y-113100000D01*
D12*
%TO.C,R11*%
X216040000Y-92230000D02*
X216340000Y-92230000D01*
X216040000Y-92830000D02*
X216340000Y-92830000D01*
%TO.C,C28*%
X235200000Y-69575000D02*
X235200000Y-69875000D01*
X235800000Y-69575000D02*
X235800000Y-69875000D01*
%TO.C,Q6*%
X191732500Y-37042000D02*
X191097500Y-37042000D01*
X191770600Y-38693000D02*
X191059400Y-38693000D01*
X191059400Y-36407000D01*
X191770600Y-36407000D01*
X191770600Y-38693000D01*
%TO.C,IC2*%
X203590000Y-78495000D02*
X203590000Y-78750000D01*
X203590000Y-89015000D02*
X203590000Y-88760000D01*
X203600000Y-79780000D02*
X203600000Y-80030000D01*
X203600000Y-81080000D02*
X203600000Y-81330000D01*
X203600000Y-82380000D02*
X203600000Y-82630000D01*
X203600000Y-83630000D02*
X203600000Y-83880000D01*
X203600000Y-84880000D02*
X203600000Y-85130000D01*
X203600000Y-86180000D02*
X203600000Y-86430000D01*
X203600000Y-87430000D02*
X203600000Y-87680000D01*
X204650000Y-78505000D02*
X204650000Y-88955000D01*
X207450000Y-78495000D02*
X203590000Y-78495000D01*
X207450000Y-78495000D02*
X211310000Y-78495000D01*
X207450000Y-89015000D02*
X203590000Y-89015000D01*
X207450000Y-89015000D02*
X211310000Y-89015000D01*
X211300000Y-79780000D02*
X211300000Y-80030000D01*
X211300000Y-81080000D02*
X211300000Y-81330000D01*
X211300000Y-82380000D02*
X211300000Y-82630000D01*
X211300000Y-83630000D02*
X211300000Y-83880000D01*
X211300000Y-84880000D02*
X211300000Y-85130000D01*
X211300000Y-86180000D02*
X211300000Y-86430000D01*
X211300000Y-87430000D02*
X211300000Y-87680000D01*
X211310000Y-78495000D02*
X211310000Y-78750000D01*
X211310000Y-89015000D02*
X211310000Y-88760000D01*
X208349993Y-78505588D02*
G75*
G02*
X206550000Y-78505000I-899993J10588D01*
G01*
D15*
X202891803Y-78555000D02*
G75*
G02*
X202608197Y-78555000I-141803J0D01*
G01*
X202608197Y-78555000D02*
G75*
G02*
X202891803Y-78555000I141803J0D01*
G01*
D12*
%TO.C,C7*%
X200100000Y-55550000D02*
X200100000Y-55250000D01*
X200700000Y-55550000D02*
X200700000Y-55250000D01*
%TO.C,RL1*%
X195433332Y-100099999D02*
X202908332Y-100099999D01*
X202908332Y-120999999D01*
X195433332Y-120999999D01*
X195433332Y-100099999D01*
%TO.C,C1*%
X153620000Y-114970000D02*
X153620000Y-116486000D01*
X153620000Y-114970000D02*
X170360000Y-114970000D01*
X153620000Y-118694000D02*
X153620000Y-120210000D01*
X153620000Y-120210000D02*
X170360000Y-120210000D01*
X155990000Y-117590000D02*
X161490000Y-117590000D01*
X161490000Y-116490000D02*
X161490000Y-118690000D01*
X162390000Y-116490000D02*
X162390000Y-118690000D01*
X167940000Y-117590000D02*
X162390000Y-117590000D01*
X170360000Y-114970000D02*
X170360000Y-116486000D01*
X170360000Y-118694000D02*
X170360000Y-120210000D01*
%TO.C,C26*%
X258135000Y-52700000D02*
X258435000Y-52700000D01*
X258135000Y-53300000D02*
X258435000Y-53300000D01*
%TO.C,D6*%
X214660000Y-98700000D02*
X214910000Y-98700000D01*
X214660000Y-101900000D02*
X214660000Y-98700000D01*
X214660000Y-101900000D02*
X214910000Y-101900000D01*
X216715000Y-98700000D02*
X216965000Y-98700000D01*
X216970000Y-98710000D02*
X216970000Y-101910000D01*
X216970000Y-101910000D02*
X216720000Y-101910000D01*
D13*
X214600000Y-101110000D02*
X217030000Y-101110000D01*
X217030000Y-100880000D01*
X214600000Y-100880000D01*
X214600000Y-101110000D01*
G36*
X214600000Y-101110000D02*
G01*
X217030000Y-101110000D01*
X217030000Y-100880000D01*
X214600000Y-100880000D01*
X214600000Y-101110000D01*
G37*
D12*
%TO.C,C22*%
X233000000Y-94275000D02*
X233000000Y-93975000D01*
X233600000Y-94275000D02*
X233600000Y-93975000D01*
%TO.C,SW2*%
X234225000Y-76500000D02*
X234225000Y-80900000D01*
X234225000Y-80900000D02*
X234345000Y-80900000D01*
X234345000Y-76500000D02*
X234225000Y-76500000D01*
X234875000Y-79100000D02*
X234875000Y-78300000D01*
X235475000Y-80900000D02*
X236475000Y-80900000D01*
X236450000Y-76500000D02*
X235525000Y-76500000D01*
X237075000Y-78300000D02*
X237075000Y-79100000D01*
X237605000Y-80900000D02*
X237725000Y-80900000D01*
X237725000Y-76500000D02*
X237605000Y-76500000D01*
X237725000Y-80900000D02*
X237725000Y-76500000D01*
X234875000Y-78300000D02*
G75*
G02*
X237075000Y-78300000I1100000J0D01*
G01*
X237075000Y-79100000D02*
G75*
G02*
X234875000Y-79100000I-1100000J0D01*
G01*
%TO.C,Q5*%
X211708000Y-97405000D02*
X211708000Y-96770000D01*
X210057000Y-97443100D02*
X212343000Y-97443100D01*
X212343000Y-96731900D01*
X210057000Y-96731900D01*
X210057000Y-97443100D01*
%TO.C,C31*%
X258135000Y-57200000D02*
X258435000Y-57200000D01*
X258135000Y-57800000D02*
X258435000Y-57800000D01*
%TO.C,R2*%
X184950000Y-31650000D02*
X184650000Y-31650000D01*
X184950000Y-32250000D02*
X184650000Y-32250000D01*
%TO.C,R7*%
X232675000Y-110700000D02*
X232975000Y-110700000D01*
X232675000Y-111300000D02*
X232975000Y-111300000D01*
%TO.C,C3*%
X154520000Y-95190000D02*
X154520000Y-96706000D01*
X154520000Y-95190000D02*
X171260000Y-95190000D01*
X154520000Y-98914000D02*
X154520000Y-100430000D01*
X154520000Y-100430000D02*
X171260000Y-100430000D01*
X156890000Y-97810000D02*
X162390000Y-97810000D01*
X162390000Y-96710000D02*
X162390000Y-98910000D01*
X163290000Y-96710000D02*
X163290000Y-98910000D01*
X168840000Y-97810000D02*
X163290000Y-97810000D01*
X171260000Y-95190000D02*
X171260000Y-96706000D01*
X171260000Y-98914000D02*
X171260000Y-100430000D01*
%TO.C,C29*%
X258135000Y-54950000D02*
X258435000Y-54950000D01*
X258135000Y-55550000D02*
X258435000Y-55550000D01*
%TO.C,R35*%
X235200000Y-73225000D02*
X235200000Y-73525000D01*
X235800000Y-73225000D02*
X235800000Y-73525000D01*
%TO.C,R10*%
X199687500Y-95887499D02*
X199687500Y-95587499D01*
X200287500Y-95887499D02*
X200287500Y-95587499D01*
%TO.C,RL4*%
X175300000Y-100099999D02*
X182775000Y-100099999D01*
X182775000Y-120999999D01*
X175300000Y-120999999D01*
X175300000Y-100099999D01*
%TO.C,R29*%
X260700000Y-105005000D02*
X261000000Y-105005000D01*
X260700000Y-105605000D02*
X261000000Y-105605000D01*
D13*
%TO.C,RV1*%
X156174463Y-125041120D02*
X156166203Y-123349190D01*
X156666203Y-122795135D02*
X156902148Y-122795135D01*
X159054592Y-122388070D02*
X164124592Y-122388070D01*
X159195537Y-122894015D02*
X166870537Y-122894015D01*
X161054592Y-123248070D02*
X166124592Y-123248070D01*
X162445408Y-125197065D02*
X157375408Y-125197065D01*
X164304463Y-125551120D02*
X156629463Y-125551120D01*
X164445408Y-126057065D02*
X159375408Y-126057065D01*
X166833797Y-125650000D02*
X166597852Y-125650000D01*
X167325537Y-123404015D02*
X167333797Y-125095945D01*
X156166203Y-123349190D02*
G75*
G02*
X156666203Y-122795135I554874J1898D01*
G01*
X156629463Y-125551119D02*
G75*
G02*
X156174463Y-125041120I50099J502662D01*
G01*
X159404055Y-126050000D02*
G75*
G02*
X158849996Y-125550000I-1905J554870D01*
G01*
X164095945Y-122395135D02*
G75*
G02*
X164649999Y-122895135I1905J-554865D01*
G01*
X166870537Y-122894016D02*
G75*
G02*
X167325525Y-123404015I-50137J-502684D01*
G01*
X167333797Y-125095945D02*
G75*
G02*
X166833797Y-125650001I-554867J-1905D01*
G01*
D17*
%TO.C,BT1*%
X204549998Y-56325000D02*
X206549998Y-56325000D01*
X205549998Y-57325000D02*
X205549998Y-55325000D01*
X206899998Y-55675000D02*
X206899998Y-57675000D01*
X206899998Y-57675000D02*
X202899998Y-57675000D01*
X206899998Y-75675000D02*
X206899998Y-72735000D01*
X206899998Y-75675000D02*
X210899998Y-75675000D01*
X210899998Y-55675000D02*
X206899998Y-55675000D01*
X210899998Y-55675000D02*
X210899998Y-57675000D01*
D13*
X210899998Y-75675000D02*
X208899998Y-75675000D01*
D17*
X210899998Y-75675000D02*
X210899998Y-72805000D01*
X214899998Y-57675000D02*
X210899998Y-57675000D01*
X203399999Y-60675001D02*
G75*
G02*
X202899998Y-57675005I-500001J1458331D01*
G01*
X206876296Y-72760387D02*
G75*
G02*
X203399999Y-60675001I1972077J7109920D01*
G01*
X214399998Y-60675000D02*
G75*
G02*
X210942009Y-72822040I-5502078J-4999408D01*
G01*
X214899998Y-57675000D02*
G75*
G02*
X214399996Y-60675006I0J-1541670D01*
G01*
D12*
%TO.C,R37*%
X165125000Y-54600000D02*
X165425000Y-54600000D01*
X165125000Y-55200000D02*
X165425000Y-55200000D01*
%TO.C,U10*%
X231500000Y-33225000D02*
X231500000Y-39975000D01*
X231500000Y-33225000D02*
X249500000Y-33225000D01*
X231500000Y-57975000D02*
X231500000Y-58725000D01*
X231500000Y-58725000D02*
X234000000Y-58725000D01*
X249500000Y-33225000D02*
X249500000Y-39975000D01*
X249500000Y-39165000D02*
X231500000Y-39165000D01*
X249500000Y-57975000D02*
X249500000Y-58725000D01*
X249500000Y-58725000D02*
X247000000Y-58725000D01*
%TO.C,D5*%
X198087500Y-89822499D02*
X198087500Y-89572499D01*
X198087500Y-91877499D02*
X198087500Y-91627499D01*
X198097500Y-89567499D02*
X201297500Y-89567499D01*
X201287500Y-91877499D02*
X198087500Y-91877499D01*
X201287500Y-91877499D02*
X201287500Y-91627499D01*
X201297500Y-89567499D02*
X201297500Y-89817499D01*
D13*
X200497500Y-91937499D02*
X200267500Y-91937499D01*
X200267500Y-89507499D01*
X200497500Y-89507499D01*
X200497500Y-91937499D01*
G36*
X200497500Y-91937499D02*
G01*
X200267500Y-91937499D01*
X200267500Y-89507499D01*
X200497500Y-89507499D01*
X200497500Y-91937499D01*
G37*
D12*
%TO.C,D3*%
X227450400Y-98120000D02*
X227450400Y-98245000D01*
X227450400Y-98120000D02*
X227850400Y-98120000D01*
X227450400Y-99245000D02*
X227450400Y-99370000D01*
X227850400Y-98120000D02*
X229150400Y-98120000D01*
X227850400Y-99370000D02*
X227450400Y-99370000D01*
X227850400Y-99370000D02*
X227850400Y-98120000D01*
X229150400Y-98120000D02*
X229150400Y-98270000D01*
X229150400Y-99220000D02*
X229150400Y-99370000D01*
X229150400Y-99370000D02*
X227850400Y-99370000D01*
D13*
%TO.C,JP2*%
X220365000Y-51700000D02*
X220365000Y-51100000D01*
X221015000Y-50400000D02*
X223815000Y-50400000D01*
X223815000Y-52400000D02*
X221015000Y-52400000D01*
X224465000Y-51100000D02*
X224465000Y-51700000D01*
X220365000Y-51100000D02*
G75*
G02*
X221065000Y-50400000I699999J1D01*
G01*
X221065000Y-52400000D02*
G75*
G02*
X220365000Y-51700000I-1J699999D01*
G01*
X223765000Y-50400000D02*
G75*
G02*
X224465000Y-51100000I0J-700000D01*
G01*
X224465000Y-51700000D02*
G75*
G02*
X223765000Y-52400000I-700000J0D01*
G01*
D12*
%TO.C,R33*%
X258135000Y-66200000D02*
X258435000Y-66200000D01*
X258135000Y-66800000D02*
X258435000Y-66800000D01*
%TO.C,R15*%
X205450000Y-97150000D02*
X205450000Y-96850000D01*
X206050000Y-97150000D02*
X206050000Y-96850000D01*
%TO.C,D4*%
X222074000Y-75082558D02*
X222709000Y-75082558D01*
X222035900Y-73431558D02*
X222747100Y-73431558D01*
X222747100Y-75717558D01*
X222035900Y-75717558D01*
X222035900Y-73431558D01*
%TO.C,J6*%
X203175000Y-42650000D02*
X203175000Y-36525000D01*
X203175000Y-48605000D02*
X203175000Y-45825000D01*
X203175000Y-48605000D02*
X216525000Y-48605000D01*
X213525000Y-33855000D02*
X217000000Y-33855000D01*
X216525000Y-48605000D02*
X216525000Y-48855000D01*
X216525000Y-48855000D02*
X217625000Y-48855000D01*
X217625000Y-48605000D02*
X218225000Y-48605000D01*
X217625000Y-48855000D02*
X217625000Y-48605000D01*
X218225000Y-42625000D02*
X218225000Y-36475000D01*
X218225000Y-48605000D02*
X218225000Y-45825000D01*
%TO.C,Z1*%
X234845000Y-100770000D02*
X235095000Y-100770000D01*
X234845000Y-103970000D02*
X234845000Y-100770000D01*
X234845000Y-103970000D02*
X235095000Y-103970000D01*
X236900000Y-100770000D02*
X237150000Y-100770000D01*
X237155000Y-100780000D02*
X237155000Y-103980000D01*
X237155000Y-103980000D02*
X236905000Y-103980000D01*
D13*
X234785000Y-103180000D02*
X237215000Y-103180000D01*
X237215000Y-102950000D01*
X234785000Y-102950000D01*
X234785000Y-103180000D01*
G36*
X234785000Y-103180000D02*
G01*
X237215000Y-103180000D01*
X237215000Y-102950000D01*
X234785000Y-102950000D01*
X234785000Y-103180000D01*
G37*
D12*
%TO.C,C33*%
X221265000Y-63800000D02*
X221565000Y-63800000D01*
X221265000Y-64400000D02*
X221565000Y-64400000D01*
%TO.C,C23*%
X235250000Y-94275000D02*
X235250000Y-93975000D01*
X235850000Y-94275000D02*
X235850000Y-93975000D01*
%TO.C,R8*%
X229530000Y-85537893D02*
X229830000Y-85537893D01*
X229530000Y-86137893D02*
X229830000Y-86137893D01*
%TO.C,J1*%
X153000000Y-31500000D02*
X153000000Y-40500000D01*
X153000000Y-40500000D02*
X161300000Y-40500000D01*
X167500000Y-31500000D02*
X153000000Y-31500000D01*
X167500000Y-33400000D02*
X167500000Y-31500000D01*
X167500000Y-38500000D02*
X167500000Y-40500000D01*
X167500000Y-40500000D02*
X165850000Y-40500000D01*
%TO.C,LE6*%
X215115000Y-107205000D02*
X215115000Y-105355000D01*
X215115000Y-107205000D02*
X216515000Y-107205000D01*
D11*
X215415000Y-105905000D02*
X216215000Y-105905000D01*
D12*
X216515000Y-107205000D02*
X216515000Y-105430000D01*
D14*
X215815000Y-105905000D02*
X215415000Y-105505000D01*
X216215000Y-105505000D01*
X215815000Y-105905000D01*
G36*
X215815000Y-105905000D02*
G01*
X215415000Y-105505000D01*
X216215000Y-105505000D01*
X215815000Y-105905000D01*
G37*
%TO.C,RL2*%
D12*
X205500000Y-100099999D02*
X212975000Y-100099999D01*
X212975000Y-120999999D01*
X205500000Y-120999999D01*
X205500000Y-100099999D01*
%TO.C,LE7*%
X182269999Y-93315000D02*
X182269999Y-91465000D01*
X182269999Y-93315000D02*
X183669999Y-93315000D01*
D11*
X182569999Y-92015000D02*
X183369999Y-92015000D01*
D12*
X183669999Y-93315000D02*
X183669999Y-91540000D01*
D14*
X182969999Y-92015000D02*
X182569999Y-91615000D01*
X183369999Y-91615000D01*
X182969999Y-92015000D01*
G36*
X182969999Y-92015000D02*
G01*
X182569999Y-91615000D01*
X183369999Y-91615000D01*
X182969999Y-92015000D01*
G37*
D12*
%TO.C,C24*%
X237500000Y-94275000D02*
X237500000Y-93975000D01*
X238100000Y-94275000D02*
X238100000Y-93975000D01*
D13*
%TO.C,C5*%
X184790000Y-55390000D02*
X187140000Y-55390000D01*
X184790000Y-61145563D02*
X184790000Y-55390000D01*
X185854437Y-62210000D02*
X184790000Y-61145563D01*
X185854437Y-62210000D02*
X187140000Y-62210000D01*
X185958750Y-62843750D02*
X186746250Y-62843750D01*
X186352500Y-63237500D02*
X186352500Y-62450000D01*
X190545563Y-62210000D02*
X189260000Y-62210000D01*
X190545563Y-62210000D02*
X191610000Y-61145563D01*
X191610000Y-55390000D02*
X189260000Y-55390000D01*
X191610000Y-61145563D02*
X191610000Y-55390000D01*
%TO.C,U2*%
X177800000Y-65750000D02*
X184600000Y-65750000D01*
X184600000Y-61950000D01*
X177800000Y-61950000D01*
X177800000Y-65750000D01*
X178900000Y-65750000D02*
X177800000Y-65750000D01*
X177800000Y-64650000D01*
X178900000Y-65750000D01*
G36*
X178900000Y-65750000D02*
G01*
X177800000Y-65750000D01*
X177800000Y-64650000D01*
X178900000Y-65750000D01*
G37*
D12*
%TO.C,C19*%
X229530000Y-81037893D02*
X229830000Y-81037893D01*
X229530000Y-81637893D02*
X229830000Y-81637893D01*
%TO.C,R34*%
X237450000Y-73225000D02*
X237450000Y-73525000D01*
X238050000Y-73225000D02*
X238050000Y-73525000D01*
%TO.C,R16*%
X207700000Y-97150000D02*
X207700000Y-96850000D01*
X208300000Y-97150000D02*
X208300000Y-96850000D01*
%TO.C,D8*%
X206570000Y-92525000D02*
X206570000Y-92275000D01*
X206570000Y-94580000D02*
X206570000Y-94330000D01*
X206580000Y-92270000D02*
X209780000Y-92270000D01*
X209770000Y-94580000D02*
X206570000Y-94580000D01*
X209770000Y-94580000D02*
X209770000Y-94330000D01*
X209780000Y-92270000D02*
X209780000Y-92520000D01*
D13*
X208980000Y-94640000D02*
X208750000Y-94640000D01*
X208750000Y-92210000D01*
X208980000Y-92210000D01*
X208980000Y-94640000D01*
G36*
X208980000Y-94640000D02*
G01*
X208750000Y-94640000D01*
X208750000Y-92210000D01*
X208980000Y-92210000D01*
X208980000Y-94640000D01*
G37*
D12*
%TO.C,C30*%
X221265000Y-59300000D02*
X221565000Y-59300000D01*
X221265000Y-59900000D02*
X221565000Y-59900000D01*
%TO.C,R21*%
X235250000Y-86975000D02*
X235250000Y-86675000D01*
X235850000Y-86975000D02*
X235850000Y-86675000D01*
%TO.C,R30*%
X258135000Y-59450000D02*
X258435000Y-59450000D01*
X258135000Y-60050000D02*
X258435000Y-60050000D01*
%TO.C,C18*%
X229530000Y-78787893D02*
X229830000Y-78787893D01*
X229530000Y-79387893D02*
X229830000Y-79387893D01*
%TO.C,F1*%
X148100000Y-127690000D02*
X148100000Y-132375000D01*
X148600000Y-132200000D02*
X148600000Y-124975000D01*
X148880000Y-125455000D02*
X148880000Y-130525000D01*
X149110000Y-124520000D02*
X149610000Y-124520000D01*
X149584055Y-135435945D02*
X149084055Y-135435945D01*
X149740000Y-129165000D02*
X149740000Y-134235000D01*
X150094055Y-127475000D02*
X150094055Y-134980945D01*
X150600000Y-127475000D02*
X150600000Y-132235000D01*
X148100000Y-127680000D02*
G75*
G02*
X148599998Y-127125929I555000J1800D01*
G01*
X148600001Y-124975000D02*
G75*
G02*
X149110001Y-124519942I502899J-50300D01*
G01*
X149154055Y-135435945D02*
G75*
G02*
X148600000Y-134935945I-1799J554983D01*
G01*
X149540000Y-124520000D02*
G75*
G02*
X150100003Y-125020000I1860J-561520D01*
G01*
X150094054Y-134980945D02*
G75*
G02*
X149584055Y-135435945I-502837J50295D01*
G01*
X150592935Y-132206353D02*
G75*
G02*
X150092935Y-132760407I-554985J-1797D01*
G01*
%TO.C,R5*%
X257050000Y-98255000D02*
X257350000Y-98255000D01*
X257050000Y-98855000D02*
X257350000Y-98855000D01*
%TO.C,LE13*%
X220215000Y-53800000D02*
X220215000Y-55200000D01*
X220215000Y-53800000D02*
X222065000Y-53800000D01*
X220215000Y-55200000D02*
X221990000Y-55200000D01*
D11*
X221515000Y-54100000D02*
X221515000Y-54900000D01*
D14*
X221915000Y-54900000D02*
X221515000Y-54500000D01*
X221915000Y-54100000D01*
X221915000Y-54900000D01*
G36*
X221915000Y-54900000D02*
G01*
X221515000Y-54500000D01*
X221915000Y-54100000D01*
X221915000Y-54900000D01*
G37*
D12*
%TO.C,J4*%
X237490000Y-132100000D02*
X237490000Y-129920000D01*
X237490000Y-144120000D02*
X237490000Y-135600000D01*
X237490000Y-144120000D02*
X250100000Y-144120000D01*
X238610000Y-127070000D02*
X248990000Y-127070000D01*
X250110000Y-132100000D02*
X250110000Y-129920000D01*
X250110000Y-135600000D02*
X250100000Y-144120000D01*
%TO.C,R26*%
X260700000Y-98255000D02*
X261000000Y-98255000D01*
X260700000Y-98855000D02*
X261000000Y-98855000D01*
%TO.C,Q2*%
X192195500Y-95804999D02*
X192195500Y-95169999D01*
X190544500Y-95843099D02*
X192830500Y-95843099D01*
X192830500Y-95131899D01*
X190544500Y-95131899D01*
X190544500Y-95843099D01*
D13*
%TO.C,TP1*%
X229465000Y-65670000D02*
G75*
G02*
X228065000Y-65670000I-700000J0D01*
G01*
X228065000Y-65670000D02*
G75*
G02*
X229465000Y-65670000I700000J0D01*
G01*
D12*
%TO.C,R27*%
X260700000Y-100505000D02*
X261000000Y-100505000D01*
X260700000Y-101105000D02*
X261000000Y-101105000D01*
%TO.C,U4*%
X215475000Y-113975000D02*
X215475000Y-113865000D01*
X215475000Y-114985000D02*
X215475000Y-115225000D01*
X215475000Y-116265000D02*
X215475000Y-116505000D01*
X215475000Y-117525000D02*
X215475000Y-117765000D01*
X215485000Y-118795000D02*
X215485000Y-118905000D01*
X215485000Y-118905000D02*
X219385000Y-118905000D01*
X218625000Y-118875000D02*
X218625000Y-113875000D01*
X219375000Y-113865000D02*
X215475000Y-113865000D01*
X219375000Y-113975000D02*
X219375000Y-113865000D01*
X219375000Y-114985000D02*
X219375000Y-115225000D01*
X219375000Y-116255000D02*
X219375000Y-116495000D01*
X219375000Y-117515000D02*
X219375000Y-117755000D01*
X219385000Y-118795000D02*
X219385000Y-118905000D01*
X216865000Y-118905000D02*
G75*
G02*
X217985058Y-118905000I560029J3285D01*
G01*
D15*
X220216803Y-119185000D02*
G75*
G02*
X219933197Y-119185000I-141803J0D01*
G01*
X219933197Y-119185000D02*
G75*
G02*
X220216803Y-119185000I141803J0D01*
G01*
D12*
%TO.C,Q3*%
X221897500Y-93438000D02*
X222532500Y-93438000D01*
X221859400Y-91787000D02*
X222570600Y-91787000D01*
X222570600Y-94073000D01*
X221859400Y-94073000D01*
X221859400Y-91787000D01*
%TO.C,C27*%
X237450000Y-69575000D02*
X237450000Y-69875000D01*
X238050000Y-69575000D02*
X238050000Y-69875000D01*
%TO.C,C21*%
X183230000Y-81856393D02*
X183530000Y-81856393D01*
X183230000Y-82456393D02*
X183530000Y-82456393D01*
%TO.C,IC1*%
X217540000Y-78686500D02*
X217540000Y-78941500D01*
X217540000Y-89206500D02*
X217540000Y-88951500D01*
X217550000Y-79971500D02*
X217550000Y-80221500D01*
X217550000Y-81271500D02*
X217550000Y-81521500D01*
X217550000Y-82571500D02*
X217550000Y-82821500D01*
X217550000Y-83821500D02*
X217550000Y-84071500D01*
X217550000Y-85071500D02*
X217550000Y-85321500D01*
X217550000Y-86371500D02*
X217550000Y-86621500D01*
X217550000Y-87621500D02*
X217550000Y-87871500D01*
X218600000Y-78696500D02*
X218600000Y-89146500D01*
X221400000Y-78686500D02*
X217540000Y-78686500D01*
X221400000Y-78686500D02*
X225260000Y-78686500D01*
X221400000Y-89206500D02*
X217540000Y-89206500D01*
X221400000Y-89206500D02*
X225260000Y-89206500D01*
X225250000Y-79971500D02*
X225250000Y-80221500D01*
X225250000Y-81271500D02*
X225250000Y-81521500D01*
X225250000Y-82571500D02*
X225250000Y-82821500D01*
X225250000Y-83821500D02*
X225250000Y-84071500D01*
X225250000Y-85071500D02*
X225250000Y-85321500D01*
X225250000Y-86371500D02*
X225250000Y-86621500D01*
X225250000Y-87621500D02*
X225250000Y-87871500D01*
X225260000Y-78686500D02*
X225260000Y-78941500D01*
X225260000Y-89206500D02*
X225260000Y-88951500D01*
X222299993Y-78697088D02*
G75*
G02*
X220500000Y-78696500I-899993J10588D01*
G01*
D15*
X216841803Y-78746500D02*
G75*
G02*
X216558197Y-78746500I-141803J0D01*
G01*
X216558197Y-78746500D02*
G75*
G02*
X216841803Y-78746500I141803J0D01*
G01*
D12*
%TO.C,R13*%
X178069999Y-91665000D02*
X178069999Y-91965000D01*
X178669999Y-91665000D02*
X178669999Y-91965000D01*
%TO.C,Q1*%
X228297500Y-95878000D02*
X228932500Y-95878000D01*
X228259400Y-94227000D02*
X228970600Y-94227000D01*
X228970600Y-96513000D01*
X228259400Y-96513000D01*
X228259400Y-94227000D01*
%TO.C,C9*%
X191765000Y-43650000D02*
X191465000Y-43650000D01*
X191765000Y-44250000D02*
X191465000Y-44250000D01*
%TO.C,C20*%
X179865000Y-68556393D02*
X180165000Y-68556393D01*
X179865000Y-69156393D02*
X180165000Y-69156393D01*
%TO.C,J3*%
D11*
X152700000Y-127650000D02*
X212100000Y-127650000D01*
X212100000Y-145575000D01*
X152700000Y-145575000D01*
X152700000Y-127650000D01*
D12*
%TO.C,C32*%
X221265000Y-61550000D02*
X221565000Y-61550000D01*
X221265000Y-62150000D02*
X221565000Y-62150000D01*
%TO.C,R28*%
X260700000Y-102755000D02*
X261000000Y-102755000D01*
X260700000Y-103355000D02*
X261000000Y-103355000D01*
%TO.C,SW1*%
X239175000Y-76500000D02*
X239175000Y-80900000D01*
X239175000Y-80900000D02*
X239295000Y-80900000D01*
X239295000Y-76500000D02*
X239175000Y-76500000D01*
X239825000Y-79100000D02*
X239825000Y-78300000D01*
X240425000Y-80900000D02*
X241425000Y-80900000D01*
X241400000Y-76500000D02*
X240475000Y-76500000D01*
X242025000Y-78300000D02*
X242025000Y-79100000D01*
X242555000Y-80900000D02*
X242675000Y-80900000D01*
X242675000Y-76500000D02*
X242555000Y-76500000D01*
X242675000Y-80900000D02*
X242675000Y-76500000D01*
X239825000Y-78300000D02*
G75*
G02*
X242025000Y-78300000I1100000J0D01*
G01*
X242025000Y-79100000D02*
G75*
G02*
X239825000Y-79100000I-1100000J0D01*
G01*
%TO.C,Q4*%
X176252500Y-97322999D02*
X176887500Y-97322999D01*
X176214400Y-95671999D02*
X176925600Y-95671999D01*
X176925600Y-97957999D01*
X176214400Y-97957999D01*
X176214400Y-95671999D01*
%TO.C,R12*%
X216040000Y-94480000D02*
X216340000Y-94480000D01*
X216040000Y-95080000D02*
X216340000Y-95080000D01*
%TO.C,U3*%
X187490000Y-78705000D02*
X187490000Y-78960000D01*
X187490000Y-89225000D02*
X187490000Y-88970000D01*
X187500000Y-79990000D02*
X187500000Y-80240000D01*
X187500000Y-81290000D02*
X187500000Y-81540000D01*
X187500000Y-82590000D02*
X187500000Y-82840000D01*
X187500000Y-83840000D02*
X187500000Y-84090000D01*
X187500000Y-85090000D02*
X187500000Y-85340000D01*
X187500000Y-86390000D02*
X187500000Y-86640000D01*
X187500000Y-87640000D02*
X187500000Y-87890000D01*
X188550000Y-78715000D02*
X188550000Y-89165000D01*
X191350000Y-78705000D02*
X187490000Y-78705000D01*
X191350000Y-78705000D02*
X195210000Y-78705000D01*
X191350000Y-89225000D02*
X187490000Y-89225000D01*
X191350000Y-89225000D02*
X195210000Y-89225000D01*
X195200000Y-79990000D02*
X195200000Y-80240000D01*
X195200000Y-81290000D02*
X195200000Y-81540000D01*
X195200000Y-82590000D02*
X195200000Y-82840000D01*
X195200000Y-83840000D02*
X195200000Y-84090000D01*
X195200000Y-85090000D02*
X195200000Y-85340000D01*
X195200000Y-86390000D02*
X195200000Y-86640000D01*
X195200000Y-87640000D02*
X195200000Y-87890000D01*
X195210000Y-78705000D02*
X195210000Y-78960000D01*
X195210000Y-89225000D02*
X195210000Y-88970000D01*
X192249993Y-78715588D02*
G75*
G02*
X190450000Y-78715000I-899993J10588D01*
G01*
D15*
X186791803Y-78765000D02*
G75*
G02*
X186508197Y-78765000I-141803J0D01*
G01*
X186508197Y-78765000D02*
G75*
G02*
X186791803Y-78765000I141803J0D01*
G01*
D12*
%TO.C,LE1*%
X199250000Y-52735000D02*
X199250000Y-50885000D01*
X199250000Y-52735000D02*
X200650000Y-52735000D01*
D11*
X199550000Y-51435000D02*
X200350000Y-51435000D01*
D12*
X200650000Y-52735000D02*
X200650000Y-50960000D01*
D14*
X199950000Y-51435000D02*
X199550000Y-51035000D01*
X200350000Y-51035000D01*
X199950000Y-51435000D01*
G36*
X199950000Y-51435000D02*
G01*
X199550000Y-51035000D01*
X200350000Y-51035000D01*
X199950000Y-51435000D01*
G37*
D13*
%TO.C,C4*%
X150480000Y-111680000D02*
X152720000Y-111680000D01*
X150480000Y-118920000D02*
X150480000Y-111680000D01*
X150480000Y-118920000D02*
X152720000Y-118920000D01*
X152720000Y-118920000D02*
X152720000Y-111680000D01*
D11*
%TO.C,LE5*%
X187387500Y-91577499D02*
X187387500Y-90777499D01*
D12*
X188687500Y-90477499D02*
X186912500Y-90477499D01*
X188687500Y-91877499D02*
X186837500Y-91877499D01*
X188687500Y-91877499D02*
X188687500Y-90477499D01*
D14*
X187387500Y-91177499D02*
X186987500Y-91577499D01*
X186987500Y-90777499D01*
X187387500Y-91177499D01*
G36*
X187387500Y-91177499D02*
G01*
X186987500Y-91577499D01*
X186987500Y-90777499D01*
X187387500Y-91177499D01*
G37*
D12*
%TO.C,R31*%
X258135000Y-61700000D02*
X258435000Y-61700000D01*
X258135000Y-62300000D02*
X258435000Y-62300000D01*
%TD*%
%LPC*%
D18*
%TO.C,BZ1*%
X249100000Y-74600000D03*
D19*
X256700000Y-74600000D03*
%TD*%
D20*
%TO.C,J5*%
X259400000Y-45140000D03*
X259400000Y-42600000D03*
X259400000Y-40060000D03*
X259400000Y-37520000D03*
X259400000Y-34980000D03*
X259400000Y-32440000D03*
D21*
X259400000Y-29900000D03*
%TD*%
D22*
%TO.C,L1*%
X170250000Y-35000000D03*
X178550000Y-35000000D03*
%TD*%
D23*
%TO.C,Z2*%
X177325000Y-45400000D03*
X173925000Y-45400000D03*
%TD*%
D24*
%TO.C,D2*%
X186400000Y-43100000D03*
X182350000Y-43100000D03*
%TD*%
D25*
%TO.C,C10*%
X175950000Y-42480000D03*
X177500000Y-42480000D03*
%TD*%
D26*
%TO.C,C14*%
X176435000Y-56900000D03*
X174885000Y-56900000D03*
%TD*%
D27*
%TO.C,F2*%
X182467500Y-38160000D03*
X186742500Y-38160000D03*
%TD*%
D26*
%TO.C,C17*%
X179975000Y-54600000D03*
X178425000Y-54600000D03*
%TD*%
%TO.C,R6*%
X183735000Y-54650000D03*
X182185000Y-54650000D03*
%TD*%
D28*
%TO.C,LE4*%
X185700000Y-54925000D03*
X185700000Y-53375000D03*
%TD*%
D26*
%TO.C,C16*%
X179975000Y-52350000D03*
X178425000Y-52350000D03*
%TD*%
%TO.C,C15*%
X176435000Y-59150000D03*
X174885000Y-59150000D03*
%TD*%
D25*
%TO.C,C8*%
X184025000Y-34200000D03*
X185575000Y-34200000D03*
%TD*%
D29*
%TO.C,U1*%
X187850000Y-46320000D03*
X187850000Y-47590000D03*
X187850000Y-48860000D03*
X187850000Y-50130000D03*
X182900000Y-50130000D03*
X182900000Y-48860000D03*
X182900000Y-47590000D03*
D30*
X182900000Y-46320000D03*
%TD*%
D26*
%TO.C,R17*%
X257975000Y-100805000D03*
X256425000Y-100805000D03*
%TD*%
%TO.C,C25*%
X254325000Y-103055000D03*
X252775000Y-103055000D03*
%TD*%
D31*
%TO.C,LE12*%
X253075000Y-117955000D03*
X254625000Y-117955000D03*
%TD*%
D32*
%TO.C,U9*%
X243850000Y-118635000D03*
D33*
X243850000Y-121175000D03*
X250200000Y-121175000D03*
X250200000Y-118635000D03*
%TD*%
D31*
%TO.C,LE2*%
X253075000Y-110005000D03*
X254625000Y-110005000D03*
%TD*%
D26*
%TO.C,C13*%
X254325000Y-100805000D03*
X252775000Y-100805000D03*
%TD*%
D31*
%TO.C,LE9*%
X253075000Y-115305000D03*
X254625000Y-115305000D03*
%TD*%
D33*
%TO.C,U8*%
X250200000Y-112310000D03*
X250200000Y-114850000D03*
X243850000Y-114850000D03*
D32*
X243850000Y-112310000D03*
%TD*%
D26*
%TO.C,R4*%
X254325000Y-107555000D03*
X252775000Y-107555000D03*
%TD*%
%TO.C,R3*%
X254325000Y-105305000D03*
X252775000Y-105305000D03*
%TD*%
D33*
%TO.C,U5*%
X250200000Y-99660000D03*
X250200000Y-102200000D03*
X243850000Y-102200000D03*
D32*
X243850000Y-99660000D03*
%TD*%
D26*
%TO.C,R20*%
X257975000Y-107555000D03*
X256425000Y-107555000D03*
%TD*%
%TO.C,R19*%
X257975000Y-105305000D03*
X256425000Y-105305000D03*
%TD*%
D33*
%TO.C,U6*%
X250200000Y-105985000D03*
X250200000Y-108525000D03*
X243850000Y-108525000D03*
D32*
X243850000Y-105985000D03*
%TD*%
D26*
%TO.C,R18*%
X257975000Y-103055000D03*
X256425000Y-103055000D03*
%TD*%
D31*
%TO.C,LE3*%
X253075000Y-112655000D03*
X254625000Y-112655000D03*
%TD*%
D34*
%TO.C,R1*%
X202650000Y-52525000D03*
X202650000Y-50975000D03*
%TD*%
%TO.C,R9*%
X197737500Y-96512499D03*
X197737500Y-94962499D03*
%TD*%
D26*
%TO.C,R36*%
X219325000Y-68800000D03*
X220875000Y-68800000D03*
%TD*%
D31*
%TO.C,LE14*%
X222490000Y-57150000D03*
X220940000Y-57150000D03*
%TD*%
D35*
%TO.C,RL3*%
X186766665Y-101400000D03*
X186766665Y-112900000D03*
X186766665Y-119899998D03*
X191466666Y-101400000D03*
%TD*%
D26*
%TO.C,C12*%
X252775000Y-98555000D03*
X254325000Y-98555000D03*
%TD*%
D36*
%TO.C,C2*%
X148050000Y-117800000D03*
X148050000Y-112800000D03*
%TD*%
D19*
%TO.C,PS1*%
X154200000Y-88450000D03*
X162000000Y-88450000D03*
X146700000Y-45950000D03*
X169500000Y-45950000D03*
%TD*%
D26*
%TO.C,R38*%
X164500000Y-57150000D03*
X166050000Y-57150000D03*
%TD*%
D28*
%TO.C,LE8*%
X202900000Y-95812500D03*
X202900000Y-97362500D03*
%TD*%
D26*
%TO.C,R32*%
X257510000Y-64250000D03*
X259060000Y-64250000D03*
%TD*%
%TO.C,R23*%
X231625000Y-121400000D03*
X233175000Y-121400000D03*
%TD*%
D37*
%TO.C,J2*%
X220100000Y-129120000D03*
D38*
X222600000Y-129120000D03*
X224600000Y-129120000D03*
X227100000Y-129120000D03*
X220100000Y-131740000D03*
X222600000Y-131740000D03*
X224600000Y-131740000D03*
X227100000Y-131740000D03*
D39*
X217030000Y-128770000D03*
X217030000Y-134450000D03*
X230170000Y-128770000D03*
X230170000Y-134450000D03*
%TD*%
D23*
%TO.C,D7*%
X180907500Y-96764999D03*
X184307500Y-96764999D03*
%TD*%
D40*
%TO.C,R14*%
X176119999Y-91040000D03*
X176119999Y-92590000D03*
%TD*%
D34*
%TO.C,C6*%
X198150000Y-56175000D03*
X198150000Y-54625000D03*
%TD*%
D25*
%TO.C,C11*%
X192390000Y-41100000D03*
X190840000Y-41100000D03*
%TD*%
D34*
%TO.C,R22*%
X237800000Y-87600000D03*
X237800000Y-86050000D03*
%TD*%
D41*
%TO.C,FL1*%
X158450000Y-104200000D03*
D38*
X158450000Y-111200000D03*
X166450000Y-104200000D03*
X166450000Y-111200000D03*
%TD*%
D26*
%TO.C,R11*%
X215415000Y-92530000D03*
X216965000Y-92530000D03*
%TD*%
D40*
%TO.C,C28*%
X235500000Y-68950000D03*
X235500000Y-70500000D03*
%TD*%
D42*
%TO.C,Q6*%
X190277500Y-36600000D03*
X190277500Y-38500000D03*
X192552500Y-37550000D03*
%TD*%
D43*
%TO.C,IC2*%
X202800000Y-79310000D03*
D44*
X202800000Y-80580000D03*
X202800000Y-81850000D03*
X202800000Y-83120000D03*
X202800000Y-84390000D03*
X202800000Y-85660000D03*
X202800000Y-86930000D03*
X202800000Y-88200000D03*
X212100000Y-88200000D03*
X212100000Y-86930000D03*
X212100000Y-85660000D03*
X212100000Y-84390000D03*
X212100000Y-83120000D03*
X212100000Y-81850000D03*
X212100000Y-80580000D03*
X212100000Y-79310000D03*
%TD*%
D34*
%TO.C,C7*%
X200400000Y-56175000D03*
X200400000Y-54625000D03*
%TD*%
D35*
%TO.C,RL1*%
X196833331Y-101400000D03*
X196833331Y-112900000D03*
X196833331Y-119899998D03*
X201533332Y-101400000D03*
%TD*%
D45*
%TO.C,C1*%
X154490000Y-117590000D03*
X169490000Y-117590000D03*
%TD*%
D26*
%TO.C,C26*%
X257510000Y-53000000D03*
X259060000Y-53000000D03*
%TD*%
D46*
%TO.C,D6*%
X215800000Y-98600000D03*
X215800000Y-102000000D03*
%TD*%
D34*
%TO.C,C22*%
X233300000Y-94900000D03*
X233300000Y-93350000D03*
%TD*%
D47*
%TO.C,SW2*%
X237050000Y-76350000D03*
X237050000Y-81000000D03*
X234900000Y-76350000D03*
X234900000Y-81000000D03*
%TD*%
D48*
%TO.C,Q5*%
X212150000Y-95950000D03*
X210250000Y-95950000D03*
X211200000Y-98225000D03*
%TD*%
D26*
%TO.C,C31*%
X257510000Y-57500000D03*
X259060000Y-57500000D03*
%TD*%
D25*
%TO.C,R2*%
X185575000Y-31950000D03*
X184025000Y-31950000D03*
%TD*%
D26*
%TO.C,R7*%
X232050000Y-111000000D03*
X233600000Y-111000000D03*
%TD*%
D45*
%TO.C,C3*%
X155390000Y-97810000D03*
X170390000Y-97810000D03*
%TD*%
D26*
%TO.C,C29*%
X257510000Y-55250000D03*
X259060000Y-55250000D03*
%TD*%
D40*
%TO.C,R35*%
X235500000Y-72600000D03*
X235500000Y-74150000D03*
%TD*%
D34*
%TO.C,R10*%
X199987500Y-96512499D03*
X199987500Y-94962499D03*
%TD*%
D35*
%TO.C,RL4*%
X176699999Y-101400000D03*
X176699999Y-112900000D03*
X176699999Y-119899998D03*
X181400000Y-101400000D03*
%TD*%
D26*
%TO.C,R29*%
X260075000Y-105305000D03*
X261625000Y-105305000D03*
%TD*%
D49*
%TO.C,RV1*%
X158050000Y-122850000D03*
X165550000Y-125550000D03*
%TD*%
D50*
%TO.C,BT1*%
X208899998Y-69421500D03*
D51*
X208899998Y-61928500D03*
D52*
X208899998Y-57775600D03*
X208899998Y-73574400D03*
%TD*%
D26*
%TO.C,R37*%
X164500000Y-54900000D03*
X166050000Y-54900000D03*
%TD*%
D53*
%TO.C,U10*%
X231750000Y-40715000D03*
X231750000Y-41985000D03*
X231750000Y-43255000D03*
X231750000Y-44525000D03*
X231750000Y-45795000D03*
X231750000Y-47065000D03*
X231750000Y-48335000D03*
X231750000Y-49605000D03*
X231750000Y-50875000D03*
X231750000Y-52145000D03*
X231750000Y-53415000D03*
X231750000Y-54685000D03*
X231750000Y-55955000D03*
X231750000Y-57225000D03*
D54*
X234780000Y-58475000D03*
X236050000Y-58475000D03*
X237320000Y-58475000D03*
X238590000Y-58475000D03*
X239860000Y-58475000D03*
X241130000Y-58475000D03*
X242400000Y-58475000D03*
X243670000Y-58475000D03*
X244940000Y-58475000D03*
X246210000Y-58475000D03*
D53*
X249250000Y-57225000D03*
X249250000Y-55955000D03*
X249250000Y-54685000D03*
X249250000Y-53415000D03*
X249250000Y-52145000D03*
X249250000Y-50875000D03*
X249250000Y-49605000D03*
X249250000Y-48335000D03*
X249250000Y-47065000D03*
X249250000Y-45795000D03*
X249250000Y-44525000D03*
X249250000Y-43255000D03*
X249250000Y-41985000D03*
X249250000Y-40715000D03*
D55*
X238250000Y-46475000D03*
X238250000Y-47475000D03*
X238250000Y-48475000D03*
X238250000Y-49475000D03*
X239250000Y-46475000D03*
X239250000Y-47475000D03*
X239250000Y-48475000D03*
X239250000Y-49475000D03*
D56*
X239820000Y-48055000D03*
D55*
X240250000Y-46475000D03*
X240250000Y-47475000D03*
X240250000Y-48475000D03*
X240250000Y-49475000D03*
X241250000Y-46475000D03*
X241250000Y-47475000D03*
X241250000Y-48475000D03*
X241250000Y-49475000D03*
%TD*%
D23*
%TO.C,D5*%
X197987500Y-90737499D03*
X201387500Y-90737499D03*
%TD*%
D57*
%TO.C,D3*%
X229440400Y-98745000D03*
X227160400Y-98745000D03*
%TD*%
D58*
%TO.C,JP2*%
X221115000Y-51400000D03*
D59*
X222415000Y-51400000D03*
D60*
X223715000Y-51400000D03*
%TD*%
D26*
%TO.C,R33*%
X257510000Y-66500000D03*
X259060000Y-66500000D03*
%TD*%
D34*
%TO.C,R15*%
X205750000Y-97775000D03*
X205750000Y-96225000D03*
%TD*%
D61*
%TO.C,D4*%
X223529000Y-75524558D03*
X223529000Y-73624558D03*
X221254000Y-74574558D03*
%TD*%
D62*
%TO.C,J6*%
X205725000Y-44625000D03*
X213725000Y-44625000D03*
D63*
X212905000Y-33400000D03*
X211805000Y-33400000D03*
X210705000Y-33400000D03*
X209605000Y-33400000D03*
X208505000Y-33400000D03*
X207405000Y-33400000D03*
X206305000Y-33400000D03*
X205205000Y-33400000D03*
X204105000Y-33400000D03*
D64*
X202725000Y-35025000D03*
X202725000Y-44205000D03*
X217825000Y-34950000D03*
X218800000Y-44200000D03*
%TD*%
D46*
%TO.C,Z1*%
X235985000Y-100670000D03*
X235985000Y-104070000D03*
%TD*%
D26*
%TO.C,C33*%
X220640000Y-64100000D03*
X222190000Y-64100000D03*
%TD*%
D34*
%TO.C,C23*%
X235550000Y-94900000D03*
X235550000Y-93350000D03*
%TD*%
D26*
%TO.C,R8*%
X228905000Y-85837893D03*
X230455000Y-85837893D03*
%TD*%
D65*
%TO.C,J1*%
X166600000Y-36000000D03*
D66*
X160800000Y-36000000D03*
D67*
X163600000Y-40800000D03*
%TD*%
D28*
%TO.C,LE6*%
X215815000Y-104930000D03*
X215815000Y-106480000D03*
%TD*%
D35*
%TO.C,RL2*%
X206899999Y-101400000D03*
X206899999Y-112900000D03*
X206899999Y-119899998D03*
X211600000Y-101400000D03*
%TD*%
D28*
%TO.C,LE7*%
X182969999Y-91040000D03*
X182969999Y-92590000D03*
%TD*%
D34*
%TO.C,C24*%
X237800000Y-94900000D03*
X237800000Y-93350000D03*
%TD*%
D68*
%TO.C,C5*%
X188200000Y-61500000D03*
X188200000Y-56100000D03*
%TD*%
D69*
%TO.C,U2*%
X178900000Y-67000000D03*
X181200000Y-67000000D03*
D70*
X181200000Y-60700000D03*
D69*
X183500000Y-67000000D03*
%TD*%
D26*
%TO.C,C19*%
X228905000Y-81337893D03*
X230455000Y-81337893D03*
%TD*%
D40*
%TO.C,R34*%
X237750000Y-72600000D03*
X237750000Y-74150000D03*
%TD*%
D34*
%TO.C,R16*%
X208000000Y-97775000D03*
X208000000Y-96225000D03*
%TD*%
D23*
%TO.C,D8*%
X206470000Y-93440000D03*
X209870000Y-93440000D03*
%TD*%
D26*
%TO.C,C30*%
X220640000Y-59600000D03*
X222190000Y-59600000D03*
%TD*%
D34*
%TO.C,R21*%
X235550000Y-87600000D03*
X235550000Y-86050000D03*
%TD*%
D26*
%TO.C,R30*%
X257510000Y-59750000D03*
X259060000Y-59750000D03*
%TD*%
%TO.C,C18*%
X228905000Y-79087893D03*
X230455000Y-79087893D03*
%TD*%
D49*
%TO.C,F1*%
X148600000Y-133700000D03*
X150000000Y-126200000D03*
%TD*%
D26*
%TO.C,R5*%
X256425000Y-98555000D03*
X257975000Y-98555000D03*
%TD*%
D31*
%TO.C,LE13*%
X222490000Y-54500000D03*
X220940000Y-54500000D03*
%TD*%
D37*
%TO.C,J4*%
X240300000Y-128520000D03*
D38*
X242800000Y-128520000D03*
X244800000Y-128520000D03*
X247300000Y-128520000D03*
X240300000Y-131140000D03*
X242800000Y-131140000D03*
X244800000Y-131140000D03*
X247300000Y-131140000D03*
D39*
X237230000Y-128170000D03*
X237230000Y-133850000D03*
X250370000Y-128170000D03*
X250370000Y-133850000D03*
%TD*%
D26*
%TO.C,R26*%
X260075000Y-98555000D03*
X261625000Y-98555000D03*
%TD*%
D48*
%TO.C,Q2*%
X192637500Y-94349999D03*
X190737500Y-94349999D03*
X191687500Y-96624999D03*
%TD*%
D50*
%TO.C,TP1*%
X228765000Y-65670000D03*
%TD*%
D26*
%TO.C,R27*%
X260075000Y-100805000D03*
X261625000Y-100805000D03*
%TD*%
D71*
%TO.C,U4*%
X219900000Y-118280000D03*
D72*
X219900000Y-117010000D03*
X219900000Y-115740000D03*
X219900000Y-114470000D03*
X214950000Y-114470000D03*
X214950000Y-115740000D03*
X214950000Y-117010000D03*
X214950000Y-118280000D03*
%TD*%
D61*
%TO.C,Q3*%
X223352500Y-93880000D03*
X223352500Y-91980000D03*
X221077500Y-92930000D03*
%TD*%
D40*
%TO.C,C27*%
X237750000Y-68950000D03*
X237750000Y-70500000D03*
%TD*%
D26*
%TO.C,C21*%
X182605000Y-82156393D03*
X184155000Y-82156393D03*
%TD*%
D43*
%TO.C,IC1*%
X216750000Y-79501500D03*
D44*
X216750000Y-80771500D03*
X216750000Y-82041500D03*
X216750000Y-83311500D03*
X216750000Y-84581500D03*
X216750000Y-85851500D03*
X216750000Y-87121500D03*
X216750000Y-88391500D03*
X226050000Y-88391500D03*
X226050000Y-87121500D03*
X226050000Y-85851500D03*
X226050000Y-84581500D03*
X226050000Y-83311500D03*
X226050000Y-82041500D03*
X226050000Y-80771500D03*
X226050000Y-79501500D03*
%TD*%
D40*
%TO.C,R13*%
X178369999Y-91040000D03*
X178369999Y-92590000D03*
%TD*%
D61*
%TO.C,Q1*%
X229752500Y-96320000D03*
X229752500Y-94420000D03*
X227477500Y-95370000D03*
%TD*%
D25*
%TO.C,C9*%
X192390000Y-43950000D03*
X190840000Y-43950000D03*
%TD*%
D26*
%TO.C,C20*%
X179240000Y-68856393D03*
X180790000Y-68856393D03*
%TD*%
D73*
%TO.C,J3*%
X158700000Y-133600000D03*
X168200000Y-133600000D03*
X177700000Y-133600000D03*
X187200000Y-133600000D03*
X196700000Y-133600000D03*
X206200000Y-133600000D03*
%TD*%
D26*
%TO.C,C32*%
X220640000Y-61850000D03*
X222190000Y-61850000D03*
%TD*%
%TO.C,R28*%
X260075000Y-103055000D03*
X261625000Y-103055000D03*
%TD*%
D47*
%TO.C,SW1*%
X242000000Y-76350000D03*
X242000000Y-81000000D03*
X239850000Y-76350000D03*
X239850000Y-81000000D03*
%TD*%
D74*
%TO.C,H1*%
X144600000Y-141000000D03*
X145302944Y-139302944D03*
X145302944Y-142697056D03*
X147000000Y-138600000D03*
D75*
X147000000Y-141000000D03*
D74*
X147000000Y-143400000D03*
X148697056Y-139302944D03*
X148697056Y-142697056D03*
X149400000Y-141000000D03*
%TD*%
D61*
%TO.C,Q4*%
X177707500Y-97764999D03*
X177707500Y-95864999D03*
X175432500Y-96814999D03*
%TD*%
D26*
%TO.C,R12*%
X215415000Y-94780000D03*
X216965000Y-94780000D03*
%TD*%
D43*
%TO.C,U3*%
X186700000Y-79520000D03*
D44*
X186700000Y-80790000D03*
X186700000Y-82060000D03*
X186700000Y-83330000D03*
X186700000Y-84600000D03*
X186700000Y-85870000D03*
X186700000Y-87140000D03*
X186700000Y-88410000D03*
X196000000Y-88410000D03*
X196000000Y-87140000D03*
X196000000Y-85870000D03*
X196000000Y-84600000D03*
X196000000Y-83330000D03*
X196000000Y-82060000D03*
X196000000Y-80790000D03*
X196000000Y-79520000D03*
%TD*%
D28*
%TO.C,LE1*%
X199950000Y-50460000D03*
X199950000Y-52010000D03*
%TD*%
D36*
%TO.C,C4*%
X151600000Y-117800000D03*
X151600000Y-112800000D03*
%TD*%
D76*
%TO.C,LE5*%
X186412500Y-91177499D03*
X187962500Y-91177499D03*
%TD*%
D26*
%TO.C,R31*%
X257510000Y-62000000D03*
X259060000Y-62000000D03*
%TD*%
G36*
X170105203Y-35805649D02*
G01*
X170111681Y-35811681D01*
X170563681Y-36263681D01*
X170597166Y-36325004D01*
X170600000Y-36351362D01*
X170600000Y-43776000D01*
X170580315Y-43843039D01*
X170527511Y-43888794D01*
X170476000Y-43900000D01*
X170151362Y-43900000D01*
X170084323Y-43880315D01*
X170063681Y-43863681D01*
X169936319Y-43736319D01*
X169902834Y-43674996D01*
X169900000Y-43648638D01*
X169900000Y-35899362D01*
X169919685Y-35832323D01*
X169972489Y-35786568D01*
X170041647Y-35776624D01*
X170105203Y-35805649D01*
G37*
%LPD*%
M02*
