%TF.GenerationSoftware,KiCad,Pcbnew,9.0.2*%
%TF.CreationDate,2025-09-14T14:53:03+07:00*%
%TF.ProjectId,train1,74726169-6e31-42e6-9b69-6361645f7063,rev?*%
%TF.SameCoordinates,Original*%
%TF.FileFunction,Copper,L2,Bot*%
%TF.FilePolarity,Positive*%
%FSLAX46Y46*%
G04 Gerber Fmt 4.6, Leading zero omitted, Abs format (unit mm)*
G04 Created by KiCad (PCBNEW 9.0.2) date 2025-09-14 14:53:03*
%MOMM*%
%LPD*%
G01*
G04 APERTURE LIST*
G04 Aperture macros list*
%AMOutline4P*
0 Free polygon, 4 corners , with rotation*
0 The origin of the aperture is its center*
0 number of corners: always 4*
0 $1 to $8 corner X, Y*
0 $9 Rotation angle, in degrees counterclockwise*
0 create outline with 4 corners*
4,1,4,$1,$2,$3,$4,$5,$6,$7,$8,$1,$2,$9*%
G04 Aperture macros list end*
%TA.AperFunction,ComponentPad*%
%ADD10R,2.000000X2.000000*%
%TD*%
%TA.AperFunction,ComponentPad*%
%ADD11C,2.000000*%
%TD*%
%TA.AperFunction,ComponentPad*%
%ADD12O,1.700000X1.700000*%
%TD*%
%TA.AperFunction,ComponentPad*%
%ADD13R,1.700000X1.700000*%
%TD*%
%TA.AperFunction,ComponentPad*%
%ADD14C,1.607998*%
%TD*%
%TA.AperFunction,ComponentPad*%
%ADD15C,1.600000*%
%TD*%
%TA.AperFunction,ComponentPad*%
%ADD16R,1.500000X1.500000*%
%TD*%
%TA.AperFunction,ComponentPad*%
%ADD17C,1.500000*%
%TD*%
%TA.AperFunction,ComponentPad*%
%ADD18C,3.000000*%
%TD*%
%TA.AperFunction,ComponentPad*%
%ADD19Outline4P,-0.750000X-0.750000X0.750000X-0.750000X0.750000X0.750000X-0.750000X0.750000X0.000000*%
%TD*%
%TA.AperFunction,ComponentPad*%
%ADD20C,2.200000*%
%TD*%
%TA.AperFunction,ComponentPad*%
%ADD21C,1.800000*%
%TD*%
%TA.AperFunction,ComponentPad*%
%ADD22C,0.600000*%
%TD*%
%TA.AperFunction,ComponentPad*%
%ADD23R,1.800000X4.400000*%
%TD*%
%TA.AperFunction,ComponentPad*%
%ADD24O,1.800000X4.000000*%
%TD*%
%TA.AperFunction,ComponentPad*%
%ADD25O,4.000000X1.800000*%
%TD*%
%TA.AperFunction,ComponentPad*%
%ADD26O,4.000000X2.000000*%
%TD*%
%TA.AperFunction,ComponentPad*%
%ADD27C,0.800000*%
%TD*%
%TA.AperFunction,ComponentPad*%
%ADD28C,6.400000*%
%TD*%
G04 APERTURE END LIST*
D10*
%TO.P,BZ1,1,-*%
%TO.N,+5V*%
X249100000Y-74600000D03*
D11*
%TO.P,BZ1,2,+*%
%TO.N,Net-(BZ1-+)*%
X256700000Y-74600000D03*
%TD*%
D12*
%TO.P,J5,7,Pin_7*%
%TO.N,+5V*%
X259400000Y-45140000D03*
%TO.P,J5,6,Pin_6*%
%TO.N,+3.3V*%
X259400000Y-42600000D03*
%TO.P,J5,5,Pin_5*%
%TO.N,/ESP32/ESP_BOOT*%
X259400000Y-40060000D03*
%TO.P,J5,4,Pin_4*%
%TO.N,/ESP32/ESP_RX*%
X259400000Y-37520000D03*
%TO.P,J5,3,Pin_3*%
%TO.N,/ESP32/ESP_TX*%
X259400000Y-34980000D03*
%TO.P,J5,2,Pin_2*%
%TO.N,/ESP32/ESP_RST*%
X259400000Y-32440000D03*
D13*
%TO.P,J5,1,Pin_1*%
%TO.N,GND*%
X259400000Y-29900000D03*
%TD*%
D14*
%TO.P,RL3,1,1*%
%TO.N,Net-(Q4-D)*%
X186766665Y-101400000D03*
%TO.P,RL3,2,2*%
%TO.N,/RELAY/RELAY1_OUT*%
X186766665Y-112900000D03*
%TO.P,RL3,3,3*%
%TO.N,Line   *%
X186766665Y-119899998D03*
%TO.P,RL3,4,4*%
%TO.N,+5V*%
X191466666Y-101400000D03*
%TD*%
D15*
%TO.P,C2,1*%
%TO.N,Net-(PS1-AC{slash}L)*%
X148050000Y-117800000D03*
%TO.P,C2,2*%
%TO.N,Earth*%
X148050000Y-112800000D03*
%TD*%
D11*
%TO.P,PS1,1,AC/L*%
%TO.N,Net-(PS1-AC{slash}L)*%
X154200000Y-88450000D03*
%TO.P,PS1,2,AC/N*%
%TO.N,Net-(PS1-AC{slash}N)*%
X162000000Y-88450000D03*
%TO.P,PS1,3,-Vout*%
%TO.N,GND*%
X146700000Y-45950000D03*
%TO.P,PS1,4,+Vout*%
%TO.N,+5V*%
X169500000Y-45950000D03*
%TD*%
D16*
%TO.P,J2,1,VBUS1*%
%TO.N,+5V_ISO*%
X220100000Y-129120000D03*
D17*
%TO.P,J2,2,D1-*%
%TO.N,/INPUT_OUTPUT_DIGI/IN2*%
X222600000Y-129120000D03*
%TO.P,J2,3,D1+*%
%TO.N,/INPUT_OUTPUT_DIGI/IN1*%
X224600000Y-129120000D03*
%TO.P,J2,4,GND1*%
%TO.N,GND_ISO*%
X227100000Y-129120000D03*
%TO.P,J2,5,VBUS2*%
%TO.N,+5V_ISO*%
X220100000Y-131740000D03*
%TO.P,J2,6,D2-*%
%TO.N,/INPUT_OUTPUT_DIGI/OUT2*%
X222600000Y-131740000D03*
%TO.P,J2,7,D2+*%
%TO.N,/INPUT_OUTPUT_DIGI/OUT1*%
X224600000Y-131740000D03*
%TO.P,J2,8,GND2*%
%TO.N,GND_ISO*%
X227100000Y-131740000D03*
D18*
%TO.P,J2,9,Shield*%
X217030000Y-128770000D03*
X217030000Y-134450000D03*
X230170000Y-128770000D03*
X230170000Y-134450000D03*
%TD*%
D19*
%TO.P,FL1,1,1*%
%TO.N,Neutral*%
X158450000Y-104200000D03*
D17*
%TO.P,FL1,2,2*%
%TO.N,Net-(PS1-AC{slash}N)*%
X158450000Y-111200000D03*
%TO.P,FL1,3,3*%
%TO.N,Net-(C1-Pad2)*%
X166450000Y-104200000D03*
%TO.P,FL1,4,4*%
%TO.N,Net-(PS1-AC{slash}L)*%
X166450000Y-111200000D03*
%TD*%
D14*
%TO.P,RL1,1,1*%
%TO.N,Net-(Q2-D)*%
X196833331Y-101400000D03*
%TO.P,RL1,2,2*%
%TO.N,/RELAY/RELAY2_OUT*%
X196833331Y-112900000D03*
%TO.P,RL1,3,3*%
%TO.N,Line   *%
X196833331Y-119899998D03*
%TO.P,RL1,4,4*%
%TO.N,+5V*%
X201533332Y-101400000D03*
%TD*%
D20*
%TO.P,C1,1*%
%TO.N,Neutral*%
X154490000Y-117590000D03*
%TO.P,C1,2*%
%TO.N,Net-(C1-Pad2)*%
X169490000Y-117590000D03*
%TD*%
%TO.P,C3,1*%
%TO.N,Net-(PS1-AC{slash}N)*%
X155390000Y-97810000D03*
%TO.P,C3,2*%
%TO.N,Net-(PS1-AC{slash}L)*%
X170390000Y-97810000D03*
%TD*%
D14*
%TO.P,RL4,1,1*%
%TO.N,Net-(Q5-D)*%
X176699999Y-101400000D03*
%TO.P,RL4,2,2*%
%TO.N,/RELAY/RELAY3_OUT*%
X176699999Y-112900000D03*
%TO.P,RL4,3,3*%
%TO.N,Line   *%
X176699999Y-119899998D03*
%TO.P,RL4,4,4*%
%TO.N,+5V*%
X181400000Y-101400000D03*
%TD*%
D21*
%TO.P,RV1,1*%
%TO.N,Neutral*%
X158050000Y-122850000D03*
%TO.P,RV1,2*%
%TO.N,Net-(C1-Pad2)*%
X165550000Y-125550000D03*
%TD*%
D22*
%TO.P,U10,39,GND*%
%TO.N,GND*%
X238250000Y-46475000D03*
X238250000Y-47475000D03*
X238250000Y-48475000D03*
X238250000Y-49475000D03*
X239250000Y-46475000D03*
X239250000Y-47475000D03*
X239250000Y-48475000D03*
X239250000Y-49475000D03*
X240250000Y-46475000D03*
X240250000Y-47475000D03*
X240250000Y-48475000D03*
X240250000Y-49475000D03*
X241250000Y-46475000D03*
X241250000Y-47475000D03*
X241250000Y-48475000D03*
X241250000Y-49475000D03*
%TD*%
D23*
%TO.P,J1,1*%
%TO.N,/Power/A*%
X166600000Y-36000000D03*
D24*
%TO.P,J1,2*%
%TO.N,GND*%
X160800000Y-36000000D03*
D25*
X163600000Y-40800000D03*
%TD*%
D14*
%TO.P,RL2,1,1*%
%TO.N,Net-(Q3-D)*%
X206899999Y-101400000D03*
%TO.P,RL2,2,2*%
%TO.N,/RELAY/RELAY_4_CURRENT*%
X206899999Y-112900000D03*
%TO.P,RL2,3,3*%
%TO.N,Line   *%
X206899999Y-119899998D03*
%TO.P,RL2,4,4*%
%TO.N,+5V*%
X211600000Y-101400000D03*
%TD*%
D21*
%TO.P,F1,1*%
%TO.N,Line   *%
X148600000Y-133700000D03*
%TO.P,F1,2*%
%TO.N,Net-(C1-Pad2)*%
X150000000Y-126200000D03*
%TD*%
D16*
%TO.P,J4,1,VBUS1*%
%TO.N,Net-(J4-VBUS1)*%
X240300000Y-128520000D03*
D17*
%TO.P,J4,2,D1-*%
%TO.N,/ESP32/ESP.SDA*%
X242800000Y-128520000D03*
%TO.P,J4,3,D1+*%
%TO.N,/ESP32/ESP.SCL*%
X244800000Y-128520000D03*
%TO.P,J4,4,GND1*%
%TO.N,GND*%
X247300000Y-128520000D03*
%TO.P,J4,5,VBUS2*%
%TO.N,+5V*%
X240300000Y-131140000D03*
%TO.P,J4,6,D2-*%
%TO.N,/ESP32/ESP_CO2_TX*%
X242800000Y-131140000D03*
%TO.P,J4,7,D2+*%
%TO.N,/ESP32/ESP_CO2_RX*%
X244800000Y-131140000D03*
%TO.P,J4,8,GND2*%
%TO.N,GND*%
X247300000Y-131140000D03*
D18*
%TO.P,J4,9,Shield*%
X237230000Y-128170000D03*
X237230000Y-133850000D03*
X250370000Y-128170000D03*
X250370000Y-133850000D03*
%TD*%
D26*
%TO.P,J3,1,Pin_1*%
%TO.N,Neutral*%
X158700000Y-133600000D03*
%TO.P,J3,2,Pin_2*%
%TO.N,Line   *%
X168200000Y-133600000D03*
%TO.P,J3,3,Pin_3*%
%TO.N,/RELAY/RELAY1_OUT*%
X177700000Y-133600000D03*
%TO.P,J3,4,Pin_4*%
%TO.N,/RELAY/RELAY2_OUT*%
X187200000Y-133600000D03*
%TO.P,J3,5,Pin_5*%
%TO.N,/RELAY/RELAY3_OUT*%
X196700000Y-133600000D03*
%TO.P,J3,6,Pin_6*%
%TO.N,/RELAY/RELAY4_OUT*%
X206200000Y-133600000D03*
%TD*%
D27*
%TO.P,H1,1,1*%
%TO.N,Earth*%
X144600000Y-141000000D03*
X145302944Y-139302944D03*
X145302944Y-142697056D03*
X147000000Y-138600000D03*
D28*
X147000000Y-141000000D03*
D27*
X147000000Y-143400000D03*
X148697056Y-139302944D03*
X148697056Y-142697056D03*
X149400000Y-141000000D03*
%TD*%
D15*
%TO.P,C4,1*%
%TO.N,Earth*%
X151600000Y-117800000D03*
%TO.P,C4,2*%
%TO.N,Net-(PS1-AC{slash}N)*%
X151600000Y-112800000D03*
%TD*%
M02*
