%TF.GenerationSoftware,KiCad,Pcbnew,9.0.2*%
%TF.CreationDate,2025-09-14T14:53:03+07:00*%
%TF.ProjectId,train1,74726169-6e31-42e6-9b69-6361645f7063,rev?*%
%TF.SameCoordinates,Original*%
%TF.FileFunction,Soldermask,Top*%
%TF.FilePolarity,Negative*%
%FSLAX46Y46*%
G04 Gerber Fmt 4.6, Leading zero omitted, Abs format (unit mm)*
G04 Created by KiCad (PCBNEW 9.0.2) date 2025-09-14 14:53:03*
%MOMM*%
%LPD*%
G01*
G04 APERTURE LIST*
G04 Aperture macros list*
%AMRoundRect*
0 Rectangle with rounded corners*
0 $1 Rounding radius*
0 $2 $3 $4 $5 $6 $7 $8 $9 X,Y pos of 4 corners*
0 Add a 4 corners polygon primitive as box body*
4,1,4,$2,$3,$4,$5,$6,$7,$8,$9,$2,$3,0*
0 Add four circle primitives for the rounded corners*
1,1,$1+$1,$2,$3*
1,1,$1+$1,$4,$5*
1,1,$1+$1,$6,$7*
1,1,$1+$1,$8,$9*
0 Add four rect primitives between the rounded corners*
20,1,$1+$1,$2,$3,$4,$5,0*
20,1,$1+$1,$4,$5,$6,$7,0*
20,1,$1+$1,$6,$7,$8,$9,0*
20,1,$1+$1,$8,$9,$2,$3,0*%
%AMOutline4P*
0 Free polygon, 4 corners , with rotation*
0 The origin of the aperture is its center*
0 number of corners: always 4*
0 $1 to $8 corner X, Y*
0 $9 Rotation angle, in degrees counterclockwise*
0 create outline with 4 corners*
4,1,4,$1,$2,$3,$4,$5,$6,$7,$8,$1,$2,$9*%
%AMOutline5P*
0 Free polygon, 5 corners , with rotation*
0 The origin of the aperture is its center*
0 number of corners: always 5*
0 $1 to $10 corner X, Y*
0 $11 Rotation angle, in degrees counterclockwise*
0 create outline with 5 corners*
4,1,5,$1,$2,$3,$4,$5,$6,$7,$8,$9,$10,$1,$2,$11*%
%AMOutline6P*
0 Free polygon, 6 corners , with rotation*
0 The origin of the aperture is its center*
0 number of corners: always 6*
0 $1 to $12 corner X, Y*
0 $13 Rotation angle, in degrees counterclockwise*
0 create outline with 6 corners*
4,1,6,$1,$2,$3,$4,$5,$6,$7,$8,$9,$10,$11,$12,$1,$2,$13*%
%AMOutline7P*
0 Free polygon, 7 corners , with rotation*
0 The origin of the aperture is its center*
0 number of corners: always 7*
0 $1 to $14 corner X, Y*
0 $15 Rotation angle, in degrees counterclockwise*
0 create outline with 7 corners*
4,1,7,$1,$2,$3,$4,$5,$6,$7,$8,$9,$10,$11,$12,$13,$14,$1,$2,$15*%
%AMOutline8P*
0 Free polygon, 8 corners , with rotation*
0 The origin of the aperture is its center*
0 number of corners: always 8*
0 $1 to $16 corner X, Y*
0 $17 Rotation angle, in degrees counterclockwise*
0 create outline with 8 corners*
4,1,8,$1,$2,$3,$4,$5,$6,$7,$8,$9,$10,$11,$12,$13,$14,$15,$16,$1,$2,$17*%
%AMFreePoly0*
4,1,23,0.550000,-0.750000,0.000000,-0.750000,0.000000,-0.745722,-0.065263,-0.745722,-0.191342,-0.711940,-0.304381,-0.646677,-0.396677,-0.554381,-0.461940,-0.441342,-0.495722,-0.315263,-0.495722,-0.250000,-0.500000,-0.250000,-0.500000,0.250000,-0.495722,0.250000,-0.495722,0.315263,-0.461940,0.441342,-0.396677,0.554381,-0.304381,0.646677,-0.191342,0.711940,-0.065263,0.745722,0.000000,0.745722,
0.000000,0.750000,0.550000,0.750000,0.550000,-0.750000,0.550000,-0.750000,$1*%
%AMFreePoly1*
4,1,23,0.000000,0.745722,0.065263,0.745722,0.191342,0.711940,0.304381,0.646677,0.396677,0.554381,0.461940,0.441342,0.495722,0.315263,0.495722,0.250000,0.500000,0.250000,0.500000,-0.250000,0.495722,-0.250000,0.495722,-0.315263,0.461940,-0.441342,0.396677,-0.554381,0.304381,-0.646677,0.191342,-0.711940,0.065263,-0.745722,0.000000,-0.745722,0.000000,-0.750000,-0.550000,-0.750000,
-0.550000,0.750000,0.000000,0.750000,0.000000,0.745722,0.000000,0.745722,$1*%
G04 Aperture macros list end*
%ADD10R,2.000000X2.000000*%
%ADD11C,2.000000*%
%ADD12O,1.700000X1.700000*%
%ADD13R,1.700000X1.700000*%
%ADD14R,2.700000X3.600000*%
%ADD15RoundRect,0.275000X0.275000X0.275000X-0.275000X0.275000X-0.275000X-0.275000X0.275000X-0.275000X0*%
%ADD16RoundRect,0.180000X1.020000X0.720000X-1.020000X0.720000X-1.020000X-0.720000X1.020000X-0.720000X0*%
%ADD17RoundRect,0.085000X0.340000X0.365000X-0.340000X0.365000X-0.340000X-0.365000X0.340000X-0.365000X0*%
%ADD18RoundRect,0.085000X-0.340000X-0.365000X0.340000X-0.365000X0.340000X0.365000X-0.340000X0.365000X0*%
%ADD19RoundRect,0.250000X0.312500X1.450000X-0.312500X1.450000X-0.312500X-1.450000X0.312500X-1.450000X0*%
%ADD20RoundRect,0.127500X0.322500X-0.297500X0.322500X0.297500X-0.322500X0.297500X-0.322500X-0.297500X0*%
%ADD21RoundRect,0.150000X-0.825000X-0.150000X0.825000X-0.150000X0.825000X0.150000X-0.825000X0.150000X0*%
%ADD22Outline5P,-0.975000X0.000000X-0.675000X0.300000X0.975000X0.300000X0.975000X-0.300000X-0.975000X-0.300000X0.000000*%
%ADD23RoundRect,0.127500X-0.297500X-0.322500X0.297500X-0.322500X0.297500X0.322500X-0.297500X0.322500X0*%
%ADD24Outline5P,-0.750000X0.120000X-0.570000X0.300000X0.750000X0.300000X0.750000X-0.300000X-0.750000X-0.300000X0.000000*%
%ADD25R,1.500000X0.600000*%
%ADD26RoundRect,0.085000X0.365000X-0.340000X0.365000X0.340000X-0.365000X0.340000X-0.365000X-0.340000X0*%
%ADD27C,1.607998*%
%ADD28C,1.600000*%
%ADD29R,1.500000X1.500000*%
%ADD30C,1.500000*%
%ADD31C,3.000000*%
%ADD32RoundRect,0.085000X-0.365000X0.340000X-0.365000X-0.340000X0.365000X-0.340000X0.365000X0.340000X0*%
%ADD33Outline4P,-0.750000X-0.750000X0.750000X-0.750000X0.750000X0.750000X-0.750000X0.750000X0.000000*%
%ADD34RoundRect,0.090000X-0.410000X-0.210000X0.410000X-0.210000X0.410000X0.210000X-0.410000X0.210000X0*%
%ADD35Outline5P,-1.025000X0.000000X-0.725000X0.300000X1.025000X0.300000X1.025000X-0.300000X-1.025000X-0.300000X0.000000*%
%ADD36RoundRect,0.150000X-0.875000X-0.150000X0.875000X-0.150000X0.875000X0.150000X-0.875000X0.150000X0*%
%ADD37C,2.200000*%
%ADD38RoundRect,0.275000X0.275000X-0.275000X0.275000X0.275000X-0.275000X0.275000X-0.275000X-0.275000X0*%
%ADD39RoundRect,0.162500X-0.162500X0.362500X-0.162500X-0.362500X0.162500X-0.362500X0.162500X0.362500X0*%
%ADD40RoundRect,0.090000X-0.210000X0.410000X-0.210000X-0.410000X0.210000X-0.410000X0.210000X0.410000X0*%
%ADD41C,1.800000*%
%ADD42C,1.244600*%
%ADD43RoundRect,0.647700X0.647700X-1.155700X0.647700X1.155700X-0.647700X1.155700X-0.647700X-1.155700X0*%
%ADD44R,1.500000X0.900000*%
%ADD45R,0.900000X1.500000*%
%ADD46C,0.600000*%
%ADD47R,4.100000X4.100000*%
%ADD48R,0.800000X0.600000*%
%ADD49FreePoly0,0.000000*%
%ADD50R,1.000000X1.500000*%
%ADD51FreePoly1,0.000000*%
%ADD52RoundRect,0.090000X0.410000X0.210000X-0.410000X0.210000X-0.410000X-0.210000X0.410000X-0.210000X0*%
%ADD53R,0.620000X1.400000*%
%ADD54R,1.100000X2.400000*%
%ADD55R,1.800000X4.400000*%
%ADD56O,1.800000X4.000000*%
%ADD57O,4.000000X1.800000*%
%ADD58RoundRect,0.250000X0.550000X-1.500000X0.550000X1.500000X-0.550000X1.500000X-0.550000X-1.500000X0*%
%ADD59R,1.500000X2.000000*%
%ADD60R,3.800000X2.000000*%
%ADD61C,1.000000*%
%ADD62Outline5P,-0.975000X0.000000X-0.675000X0.300000X0.975000X0.300000X0.975000X-0.300000X-0.975000X-0.300000X180.000000*%
%ADD63RoundRect,0.150000X0.825000X0.150000X-0.825000X0.150000X-0.825000X-0.150000X0.825000X-0.150000X0*%
%ADD64O,4.000000X2.000000*%
%ADD65C,0.800000*%
%ADD66C,6.400000*%
%ADD67RoundRect,0.127500X0.297500X0.322500X-0.297500X0.322500X-0.297500X-0.322500X0.297500X-0.322500X0*%
G04 APERTURE END LIST*
D10*
%TO.C,BZ1*%
X249100000Y-74600000D03*
D11*
X256700000Y-74600000D03*
%TD*%
D12*
%TO.C,J5*%
X259400000Y-45140000D03*
X259400000Y-42600000D03*
X259400000Y-40060000D03*
X259400000Y-37520000D03*
X259400000Y-34980000D03*
X259400000Y-32440000D03*
D13*
X259400000Y-29900000D03*
%TD*%
D14*
%TO.C,L1*%
X170250000Y-35000000D03*
X178550000Y-35000000D03*
%TD*%
D15*
%TO.C,Z2*%
X177325000Y-45400000D03*
X173925000Y-45400000D03*
%TD*%
D16*
%TO.C,D2*%
X186400000Y-43100000D03*
X182350000Y-43100000D03*
%TD*%
D17*
%TO.C,C10*%
X175950000Y-42480000D03*
X177500000Y-42480000D03*
%TD*%
D18*
%TO.C,C14*%
X176435000Y-56900000D03*
X174885000Y-56900000D03*
%TD*%
D19*
%TO.C,F2*%
X182467500Y-38160000D03*
X186742500Y-38160000D03*
%TD*%
D18*
%TO.C,C17*%
X179975000Y-54600000D03*
X178425000Y-54600000D03*
%TD*%
%TO.C,R6*%
X183735000Y-54650000D03*
X182185000Y-54650000D03*
%TD*%
D20*
%TO.C,LE4*%
X185700000Y-54925000D03*
X185700000Y-53375000D03*
%TD*%
D18*
%TO.C,C16*%
X179975000Y-52350000D03*
X178425000Y-52350000D03*
%TD*%
%TO.C,C15*%
X176435000Y-59150000D03*
X174885000Y-59150000D03*
%TD*%
D17*
%TO.C,C8*%
X184025000Y-34200000D03*
X185575000Y-34200000D03*
%TD*%
D21*
%TO.C,U1*%
X187850000Y-46320000D03*
X187850000Y-47590000D03*
X187850000Y-48860000D03*
X187850000Y-50130000D03*
X182900000Y-50130000D03*
X182900000Y-48860000D03*
X182900000Y-47590000D03*
D22*
X182900000Y-46320000D03*
%TD*%
D18*
%TO.C,R17*%
X257975000Y-100805000D03*
X256425000Y-100805000D03*
%TD*%
%TO.C,C25*%
X254325000Y-103055000D03*
X252775000Y-103055000D03*
%TD*%
D23*
%TO.C,LE12*%
X253075000Y-117955000D03*
X254625000Y-117955000D03*
%TD*%
D24*
%TO.C,U9*%
X243850000Y-118635000D03*
D25*
X243850000Y-121175000D03*
X250200000Y-121175000D03*
X250200000Y-118635000D03*
%TD*%
D23*
%TO.C,LE2*%
X253075000Y-110005000D03*
X254625000Y-110005000D03*
%TD*%
D18*
%TO.C,C13*%
X254325000Y-100805000D03*
X252775000Y-100805000D03*
%TD*%
D23*
%TO.C,LE9*%
X253075000Y-115305000D03*
X254625000Y-115305000D03*
%TD*%
D25*
%TO.C,U8*%
X250200000Y-112310000D03*
X250200000Y-114850000D03*
X243850000Y-114850000D03*
D24*
X243850000Y-112310000D03*
%TD*%
D18*
%TO.C,R4*%
X254325000Y-107555000D03*
X252775000Y-107555000D03*
%TD*%
%TO.C,R3*%
X254325000Y-105305000D03*
X252775000Y-105305000D03*
%TD*%
D25*
%TO.C,U5*%
X250200000Y-99660000D03*
X250200000Y-102200000D03*
X243850000Y-102200000D03*
D24*
X243850000Y-99660000D03*
%TD*%
D18*
%TO.C,R20*%
X257975000Y-107555000D03*
X256425000Y-107555000D03*
%TD*%
%TO.C,R19*%
X257975000Y-105305000D03*
X256425000Y-105305000D03*
%TD*%
D25*
%TO.C,U6*%
X250200000Y-105985000D03*
X250200000Y-108525000D03*
X243850000Y-108525000D03*
D24*
X243850000Y-105985000D03*
%TD*%
D18*
%TO.C,R18*%
X257975000Y-103055000D03*
X256425000Y-103055000D03*
%TD*%
D23*
%TO.C,LE3*%
X253075000Y-112655000D03*
X254625000Y-112655000D03*
%TD*%
D26*
%TO.C,R1*%
X202650000Y-52525000D03*
X202650000Y-50975000D03*
%TD*%
%TO.C,R9*%
X197737500Y-96512499D03*
X197737500Y-94962499D03*
%TD*%
D18*
%TO.C,R36*%
X219325000Y-68800000D03*
X220875000Y-68800000D03*
%TD*%
D23*
%TO.C,LE14*%
X222490000Y-57150000D03*
X220940000Y-57150000D03*
%TD*%
D27*
%TO.C,RL3*%
X186766665Y-101400000D03*
X186766665Y-112900000D03*
X186766665Y-119899998D03*
X191466666Y-101400000D03*
%TD*%
D18*
%TO.C,C12*%
X252775000Y-98555000D03*
X254325000Y-98555000D03*
%TD*%
D28*
%TO.C,C2*%
X148050000Y-117800000D03*
X148050000Y-112800000D03*
%TD*%
D11*
%TO.C,PS1*%
X154200000Y-88450000D03*
X162000000Y-88450000D03*
X146700000Y-45950000D03*
X169500000Y-45950000D03*
%TD*%
D18*
%TO.C,R38*%
X164500000Y-57150000D03*
X166050000Y-57150000D03*
%TD*%
D20*
%TO.C,LE8*%
X202900000Y-95812500D03*
X202900000Y-97362500D03*
%TD*%
D18*
%TO.C,R32*%
X257510000Y-64250000D03*
X259060000Y-64250000D03*
%TD*%
%TO.C,R23*%
X231625000Y-121400000D03*
X233175000Y-121400000D03*
%TD*%
D29*
%TO.C,J2*%
X220100000Y-129120000D03*
D30*
X222600000Y-129120000D03*
X224600000Y-129120000D03*
X227100000Y-129120000D03*
X220100000Y-131740000D03*
X222600000Y-131740000D03*
X224600000Y-131740000D03*
X227100000Y-131740000D03*
D31*
X217030000Y-128770000D03*
X217030000Y-134450000D03*
X230170000Y-128770000D03*
X230170000Y-134450000D03*
%TD*%
D15*
%TO.C,D7*%
X180907500Y-96764999D03*
X184307500Y-96764999D03*
%TD*%
D32*
%TO.C,R14*%
X176119999Y-91040000D03*
X176119999Y-92590000D03*
%TD*%
D26*
%TO.C,C6*%
X198150000Y-56175000D03*
X198150000Y-54625000D03*
%TD*%
D17*
%TO.C,C11*%
X192390000Y-41100000D03*
X190840000Y-41100000D03*
%TD*%
D26*
%TO.C,R22*%
X237800000Y-87600000D03*
X237800000Y-86050000D03*
%TD*%
D33*
%TO.C,FL1*%
X158450000Y-104200000D03*
D30*
X158450000Y-111200000D03*
X166450000Y-104200000D03*
X166450000Y-111200000D03*
%TD*%
D18*
%TO.C,R11*%
X215415000Y-92530000D03*
X216965000Y-92530000D03*
%TD*%
D32*
%TO.C,C28*%
X235500000Y-68950000D03*
X235500000Y-70500000D03*
%TD*%
D34*
%TO.C,Q6*%
X190277500Y-36600000D03*
X190277500Y-38500000D03*
X192552500Y-37550000D03*
%TD*%
D35*
%TO.C,IC2*%
X202800000Y-79310000D03*
D36*
X202800000Y-80580000D03*
X202800000Y-81850000D03*
X202800000Y-83120000D03*
X202800000Y-84390000D03*
X202800000Y-85660000D03*
X202800000Y-86930000D03*
X202800000Y-88200000D03*
X212100000Y-88200000D03*
X212100000Y-86930000D03*
X212100000Y-85660000D03*
X212100000Y-84390000D03*
X212100000Y-83120000D03*
X212100000Y-81850000D03*
X212100000Y-80580000D03*
X212100000Y-79310000D03*
%TD*%
D26*
%TO.C,C7*%
X200400000Y-56175000D03*
X200400000Y-54625000D03*
%TD*%
D27*
%TO.C,RL1*%
X196833331Y-101400000D03*
X196833331Y-112900000D03*
X196833331Y-119899998D03*
X201533332Y-101400000D03*
%TD*%
D37*
%TO.C,C1*%
X154490000Y-117590000D03*
X169490000Y-117590000D03*
%TD*%
D18*
%TO.C,C26*%
X257510000Y-53000000D03*
X259060000Y-53000000D03*
%TD*%
D38*
%TO.C,D6*%
X215800000Y-98600000D03*
X215800000Y-102000000D03*
%TD*%
D26*
%TO.C,C22*%
X233300000Y-94900000D03*
X233300000Y-93350000D03*
%TD*%
D39*
%TO.C,SW2*%
X237050000Y-76350000D03*
X237050000Y-81000000D03*
X234900000Y-76350000D03*
X234900000Y-81000000D03*
%TD*%
D40*
%TO.C,Q5*%
X212150000Y-95950000D03*
X210250000Y-95950000D03*
X211200000Y-98225000D03*
%TD*%
D18*
%TO.C,C31*%
X257510000Y-57500000D03*
X259060000Y-57500000D03*
%TD*%
D17*
%TO.C,R2*%
X185575000Y-31950000D03*
X184025000Y-31950000D03*
%TD*%
D18*
%TO.C,R7*%
X232050000Y-111000000D03*
X233600000Y-111000000D03*
%TD*%
D37*
%TO.C,C3*%
X155390000Y-97810000D03*
X170390000Y-97810000D03*
%TD*%
D18*
%TO.C,C29*%
X257510000Y-55250000D03*
X259060000Y-55250000D03*
%TD*%
D32*
%TO.C,R35*%
X235500000Y-72600000D03*
X235500000Y-74150000D03*
%TD*%
D26*
%TO.C,R10*%
X199987500Y-96512499D03*
X199987500Y-94962499D03*
%TD*%
D27*
%TO.C,RL4*%
X176699999Y-101400000D03*
X176699999Y-112900000D03*
X176699999Y-119899998D03*
X181400000Y-101400000D03*
%TD*%
D18*
%TO.C,R29*%
X260075000Y-105305000D03*
X261625000Y-105305000D03*
%TD*%
D41*
%TO.C,RV1*%
X158050000Y-122850000D03*
X165550000Y-125550000D03*
%TD*%
D42*
%TO.C,BT1*%
X208899998Y-61928500D03*
D43*
X208899998Y-57775600D03*
X208899998Y-73574400D03*
%TD*%
D18*
%TO.C,R37*%
X164500000Y-54900000D03*
X166050000Y-54900000D03*
%TD*%
D44*
%TO.C,U10*%
X231750000Y-40715000D03*
X231750000Y-41985000D03*
X231750000Y-43255000D03*
X231750000Y-44525000D03*
X231750000Y-45795000D03*
X231750000Y-47065000D03*
X231750000Y-48335000D03*
X231750000Y-49605000D03*
X231750000Y-50875000D03*
X231750000Y-52145000D03*
X231750000Y-53415000D03*
X231750000Y-54685000D03*
X231750000Y-55955000D03*
X231750000Y-57225000D03*
D45*
X234780000Y-58475000D03*
X236050000Y-58475000D03*
X237320000Y-58475000D03*
X238590000Y-58475000D03*
X239860000Y-58475000D03*
X241130000Y-58475000D03*
X242400000Y-58475000D03*
X243670000Y-58475000D03*
X244940000Y-58475000D03*
X246210000Y-58475000D03*
D44*
X249250000Y-57225000D03*
X249250000Y-55955000D03*
X249250000Y-54685000D03*
X249250000Y-53415000D03*
X249250000Y-52145000D03*
X249250000Y-50875000D03*
X249250000Y-49605000D03*
X249250000Y-48335000D03*
X249250000Y-47065000D03*
X249250000Y-45795000D03*
X249250000Y-44525000D03*
X249250000Y-43255000D03*
X249250000Y-41985000D03*
X249250000Y-40715000D03*
D46*
X238250000Y-46475000D03*
X238250000Y-47475000D03*
X238250000Y-48475000D03*
X238250000Y-49475000D03*
X239250000Y-46475000D03*
X239250000Y-47475000D03*
X239250000Y-48475000D03*
X239250000Y-49475000D03*
D47*
X239820000Y-48055000D03*
D46*
X240250000Y-46475000D03*
X240250000Y-47475000D03*
X240250000Y-48475000D03*
X240250000Y-49475000D03*
X241250000Y-46475000D03*
X241250000Y-47475000D03*
X241250000Y-48475000D03*
X241250000Y-49475000D03*
%TD*%
D15*
%TO.C,D5*%
X197987500Y-90737499D03*
X201387500Y-90737499D03*
%TD*%
D48*
%TO.C,D3*%
X229440400Y-98745000D03*
X227160400Y-98745000D03*
%TD*%
D49*
%TO.C,JP2*%
X221115000Y-51400000D03*
D50*
X222415000Y-51400000D03*
D51*
X223715000Y-51400000D03*
%TD*%
D18*
%TO.C,R33*%
X257510000Y-66500000D03*
X259060000Y-66500000D03*
%TD*%
D26*
%TO.C,R15*%
X205750000Y-97775000D03*
X205750000Y-96225000D03*
%TD*%
D52*
%TO.C,D4*%
X223529000Y-75524558D03*
X223529000Y-73624558D03*
X221254000Y-74574558D03*
%TD*%
D53*
%TO.C,J6*%
X212905000Y-33400000D03*
X211805000Y-33400000D03*
X210705000Y-33400000D03*
X209605000Y-33400000D03*
X208505000Y-33400000D03*
X207405000Y-33400000D03*
X206305000Y-33400000D03*
X205205000Y-33400000D03*
X204105000Y-33400000D03*
D54*
X202725000Y-35025000D03*
X202725000Y-44205000D03*
X217825000Y-34950000D03*
X218800000Y-44200000D03*
%TD*%
D38*
%TO.C,Z1*%
X235985000Y-100670000D03*
X235985000Y-104070000D03*
%TD*%
D18*
%TO.C,C33*%
X220640000Y-64100000D03*
X222190000Y-64100000D03*
%TD*%
D26*
%TO.C,C23*%
X235550000Y-94900000D03*
X235550000Y-93350000D03*
%TD*%
D18*
%TO.C,R8*%
X228905000Y-85837893D03*
X230455000Y-85837893D03*
%TD*%
D55*
%TO.C,J1*%
X166600000Y-36000000D03*
D56*
X160800000Y-36000000D03*
D57*
X163600000Y-40800000D03*
%TD*%
D20*
%TO.C,LE6*%
X215815000Y-104930000D03*
X215815000Y-106480000D03*
%TD*%
D27*
%TO.C,RL2*%
X206899999Y-101400000D03*
X206899999Y-112900000D03*
X206899999Y-119899998D03*
X211600000Y-101400000D03*
%TD*%
D20*
%TO.C,LE7*%
X182969999Y-91040000D03*
X182969999Y-92590000D03*
%TD*%
D26*
%TO.C,C24*%
X237800000Y-94900000D03*
X237800000Y-93350000D03*
%TD*%
D58*
%TO.C,C5*%
X188200000Y-61500000D03*
X188200000Y-56100000D03*
%TD*%
D59*
%TO.C,U2*%
X178900000Y-67000000D03*
X181200000Y-67000000D03*
D60*
X181200000Y-60700000D03*
D59*
X183500000Y-67000000D03*
%TD*%
D18*
%TO.C,C19*%
X228905000Y-81337893D03*
X230455000Y-81337893D03*
%TD*%
D32*
%TO.C,R34*%
X237750000Y-72600000D03*
X237750000Y-74150000D03*
%TD*%
D26*
%TO.C,R16*%
X208000000Y-97775000D03*
X208000000Y-96225000D03*
%TD*%
D15*
%TO.C,D8*%
X206470000Y-93440000D03*
X209870000Y-93440000D03*
%TD*%
D18*
%TO.C,C30*%
X220640000Y-59600000D03*
X222190000Y-59600000D03*
%TD*%
D26*
%TO.C,R21*%
X235550000Y-87600000D03*
X235550000Y-86050000D03*
%TD*%
D18*
%TO.C,R30*%
X257510000Y-59750000D03*
X259060000Y-59750000D03*
%TD*%
%TO.C,C18*%
X228905000Y-79087893D03*
X230455000Y-79087893D03*
%TD*%
D41*
%TO.C,F1*%
X148600000Y-133700000D03*
X150000000Y-126200000D03*
%TD*%
D18*
%TO.C,R5*%
X256425000Y-98555000D03*
X257975000Y-98555000D03*
%TD*%
D23*
%TO.C,LE13*%
X222490000Y-54500000D03*
X220940000Y-54500000D03*
%TD*%
D29*
%TO.C,J4*%
X240300000Y-128520000D03*
D30*
X242800000Y-128520000D03*
X244800000Y-128520000D03*
X247300000Y-128520000D03*
X240300000Y-131140000D03*
X242800000Y-131140000D03*
X244800000Y-131140000D03*
X247300000Y-131140000D03*
D31*
X237230000Y-128170000D03*
X237230000Y-133850000D03*
X250370000Y-128170000D03*
X250370000Y-133850000D03*
%TD*%
D18*
%TO.C,R26*%
X260075000Y-98555000D03*
X261625000Y-98555000D03*
%TD*%
D40*
%TO.C,Q2*%
X192637500Y-94349999D03*
X190737500Y-94349999D03*
X191687500Y-96624999D03*
%TD*%
D61*
%TO.C,TP1*%
X228765000Y-65670000D03*
%TD*%
D18*
%TO.C,R27*%
X260075000Y-100805000D03*
X261625000Y-100805000D03*
%TD*%
D62*
%TO.C,U4*%
X219900000Y-118280000D03*
D63*
X219900000Y-117010000D03*
X219900000Y-115740000D03*
X219900000Y-114470000D03*
X214950000Y-114470000D03*
X214950000Y-115740000D03*
X214950000Y-117010000D03*
X214950000Y-118280000D03*
%TD*%
D52*
%TO.C,Q3*%
X223352500Y-93880000D03*
X223352500Y-91980000D03*
X221077500Y-92930000D03*
%TD*%
D32*
%TO.C,C27*%
X237750000Y-68950000D03*
X237750000Y-70500000D03*
%TD*%
D18*
%TO.C,C21*%
X182605000Y-82156393D03*
X184155000Y-82156393D03*
%TD*%
D35*
%TO.C,IC1*%
X216750000Y-79501500D03*
D36*
X216750000Y-80771500D03*
X216750000Y-82041500D03*
X216750000Y-83311500D03*
X216750000Y-84581500D03*
X216750000Y-85851500D03*
X216750000Y-87121500D03*
X216750000Y-88391500D03*
X226050000Y-88391500D03*
X226050000Y-87121500D03*
X226050000Y-85851500D03*
X226050000Y-84581500D03*
X226050000Y-83311500D03*
X226050000Y-82041500D03*
X226050000Y-80771500D03*
X226050000Y-79501500D03*
%TD*%
D32*
%TO.C,R13*%
X178369999Y-91040000D03*
X178369999Y-92590000D03*
%TD*%
D52*
%TO.C,Q1*%
X229752500Y-96320000D03*
X229752500Y-94420000D03*
X227477500Y-95370000D03*
%TD*%
D17*
%TO.C,C9*%
X192390000Y-43950000D03*
X190840000Y-43950000D03*
%TD*%
D18*
%TO.C,C20*%
X179240000Y-68856393D03*
X180790000Y-68856393D03*
%TD*%
D64*
%TO.C,J3*%
X158700000Y-133600000D03*
X168200000Y-133600000D03*
X177700000Y-133600000D03*
X187200000Y-133600000D03*
X196700000Y-133600000D03*
X206200000Y-133600000D03*
%TD*%
D18*
%TO.C,C32*%
X220640000Y-61850000D03*
X222190000Y-61850000D03*
%TD*%
%TO.C,R28*%
X260075000Y-103055000D03*
X261625000Y-103055000D03*
%TD*%
D39*
%TO.C,SW1*%
X242000000Y-76350000D03*
X242000000Y-81000000D03*
X239850000Y-76350000D03*
X239850000Y-81000000D03*
%TD*%
D65*
%TO.C,H1*%
X144600000Y-141000000D03*
X145302944Y-139302944D03*
X145302944Y-142697056D03*
X147000000Y-138600000D03*
D66*
X147000000Y-141000000D03*
D65*
X147000000Y-143400000D03*
X148697056Y-139302944D03*
X148697056Y-142697056D03*
X149400000Y-141000000D03*
%TD*%
D52*
%TO.C,Q4*%
X177707500Y-97764999D03*
X177707500Y-95864999D03*
X175432500Y-96814999D03*
%TD*%
D18*
%TO.C,R12*%
X215415000Y-94780000D03*
X216965000Y-94780000D03*
%TD*%
D35*
%TO.C,U3*%
X186700000Y-79520000D03*
D36*
X186700000Y-80790000D03*
X186700000Y-82060000D03*
X186700000Y-83330000D03*
X186700000Y-84600000D03*
X186700000Y-85870000D03*
X186700000Y-87140000D03*
X186700000Y-88410000D03*
X196000000Y-88410000D03*
X196000000Y-87140000D03*
X196000000Y-85870000D03*
X196000000Y-84600000D03*
X196000000Y-83330000D03*
X196000000Y-82060000D03*
X196000000Y-80790000D03*
X196000000Y-79520000D03*
%TD*%
D20*
%TO.C,LE1*%
X199950000Y-50460000D03*
X199950000Y-52010000D03*
%TD*%
D28*
%TO.C,C4*%
X151600000Y-117800000D03*
X151600000Y-112800000D03*
%TD*%
D67*
%TO.C,LE5*%
X186412500Y-91177499D03*
X187962500Y-91177499D03*
%TD*%
D18*
%TO.C,R31*%
X257510000Y-62000000D03*
X259060000Y-62000000D03*
%TD*%
G36*
X170105203Y-35805649D02*
G01*
X170111681Y-35811681D01*
X170563681Y-36263681D01*
X170597166Y-36325004D01*
X170600000Y-36351362D01*
X170600000Y-43776000D01*
X170580315Y-43843039D01*
X170527511Y-43888794D01*
X170476000Y-43900000D01*
X170151362Y-43900000D01*
X170084323Y-43880315D01*
X170063681Y-43863681D01*
X169936319Y-43736319D01*
X169902834Y-43674996D01*
X169900000Y-43648638D01*
X169900000Y-35899362D01*
X169919685Y-35832323D01*
X169972489Y-35786568D01*
X170041647Y-35776624D01*
X170105203Y-35805649D01*
G37*
M02*
